<?xml version="1.0" encoding="UTF-8"?>
<svg id="Ebene_1" data-name="Ebene 1" xmlns="http://www.w3.org/2000/svg" viewBox="0 0 68.888153 122.587921">
  <defs>
    <style>
      .cls-1 {
        fill: #be1622;
      }

      .cls-2 {
        fill: #6cb6dd;
      }

      .cls-3 {
        fill: #f39200;
      }

      .cls-4 {
        fill: #004f9f;
      }
    </style>
  </defs>
  <path class="cls-4" d="M18.551758,51.760773c-.322266,0-.64502-.112793-.904297-.338867L.470703,36.430203c-.298828-.26123-.470703-.63916-.470703-1.036133V1.375517C0,.831572.320312.338896.817871.118681,1.313477-.102999,1.894531-.00876,2.29834.356474l35.637207,32.285646c.287598.260742.45166.630859.45166,1.019043s-.164062.758301-.45166,1.019043l-18.460449,16.724609c-.261719.237305-.592773.355957-.92334.355957ZM2.75,34.769074l15.784668,13.776855,16.429688-14.884766L2.75,4.476591v30.292482Z"/>
  <path class="cls-1" d="M1.374512,122.587921c-.187988,0-.37793-.039062-.556641-.118164-.497559-.220703-.817871-.712891-.817871-1.256836v-34.018066c0-.396973.171875-.774902.470703-1.036133l17.176758-14.991699c.525879-.458008,1.311523-.451172,1.827637.01709l18.460449,16.724121c.287598.260742.45166.630859.45166,1.019043s-.164062.758301-.45166,1.019043L2.29834,122.231476c-.258301.234375-.588867.356445-.923828.356445ZM2.75,87.819855v30.29248l32.214355-29.185059-16.429688-14.884277-15.784668,13.776855Z"/>
  <path class="cls-2" d="M67.513184,62.66946H31.050293c-.33252,0-.653809-.120605-.904297-.338867l-12.498535-10.908691c-.295898-.258301-.466797-.630859-.470703-1.023438-.003418-.392578.160645-.768066.45166-1.031738l18.460449-16.724609c.524414-.474609,1.322266-.474609,1.84668,0l30.500977,27.633301c.421387.381836.563965.983398.359375,1.513672-.204102.530273-.714355.880371-1.282715.880371ZM31.565918,59.91946h32.381836l-26.935547-24.402832-16.391113,14.850098,10.944824,9.552734Z"/>
  <path class="cls-3" d="M37.012207,90.302277c-.330566,0-.661133-.118652-.92334-.355957l-18.460449-16.724121c-.291016-.263672-.455078-.63916-.45166-1.031738.003906-.392578.174805-.765137.470703-1.023438l12.499023-10.908691c.250488-.218262.571777-.338867.904297-.338867h36.462402c.568359,0,1.078613.350098,1.282715.880371.20459.530273.062012,1.131836-.359375,1.513672l-30.500977,27.632812c-.262207.237305-.592773.355957-.92334.355957ZM20.621094,72.222199l16.391113,14.849609,26.935547-24.402344H31.565918l-10.944824,9.552734Z"/>
</svg>