<?xml version="1.0" encoding="UTF-8"?>
<svg id="Ebene_1" data-name="Ebene 1" xmlns="http://www.w3.org/2000/svg" viewBox="0 0 638.255371 142.937529">
  <defs>
    <style>
      .cls-1 {
        fill: #1d1d1b;
      }

      .cls-2 {
        fill: #6cb6dd;
      }

      .cls-3 {
        fill: #f39200;
      }

      .cls-4 {
        fill: #004f9f;
      }

      .cls-5 {
        fill: #be1622;
      }
    </style>
  </defs>
  <g>
    <path class="cls-4" d="M18.551758,51.760771c-.322266,0-.64502-.112793-.904297-.338867L.470703,36.430204c-.298828-.26123-.470703-.63916-.470703-1.036133V1.375517C0,.831572.320312.338896.817871.118681,1.313477-.102999,1.894531-.00876,2.29834.356474l35.637207,32.285645c.287598.260742.45166.630859.45166,1.019043s-.164062.758301-.45166,1.019043l-18.460449,16.724609c-.261719.237305-.592773.355957-.92334.355957ZM2.75,34.769072l15.784668,13.776855,16.429688-14.884766L2.75,4.476591v30.29248Z"/>
    <path class="cls-5" d="M1.374512,122.587919c-.187988,0-.37793-.039062-.556641-.118164-.497559-.220703-.817871-.712891-.817871-1.256836v-34.018066c0-.396973.171875-.774902.470703-1.036133l17.176758-14.991699c.525879-.458008,1.311523-.451172,1.827637.01709l18.460449,16.724121c.287598.260742.45166.630859.45166,1.019043s-.164062.758301-.45166,1.019043L2.29834,122.231474c-.258301.234375-.588867.356445-.923828.356445ZM2.75,87.819853v30.29248l32.214355-29.185059-16.429688-14.884277-15.784668,13.776855Z"/>
    <path class="cls-2" d="M67.513184,62.669462H31.050293c-.33252,0-.653809-.120605-.904297-.338867l-12.498535-10.908691c-.295898-.258301-.466797-.630859-.470703-1.023438-.003418-.392578.160645-.768066.45166-1.031738l18.460449-16.724609c.524414-.474609,1.322266-.474609,1.84668,0l30.500977,27.633301c.421387.381836.563965.983398.359375,1.513672-.204102.530273-.714355.880371-1.282715.880371ZM31.565918,59.919462h32.381836l-26.935547-24.402832-16.391113,14.850098,10.944824,9.552734Z"/>
    <path class="cls-3" d="M37.012207,90.302275c-.330566,0-.661133-.118652-.92334-.355957l-18.460449-16.724121c-.291016-.263672-.455078-.63916-.45166-1.031738.003906-.392578.174805-.765137.470703-1.023438l12.499023-10.908691c.250488-.218262.571777-.338867.904297-.338867h36.462402c.568359,0,1.078613.350098,1.282715.880371.20459.530273.062012,1.131836-.359375,1.513672l-30.500977,27.632813c-.262207.237305-.592773.355957-.92334.355957ZM20.621094,72.222197l16.391113,14.849609,26.935547-24.402344H31.565918l-10.944824,9.552734Z"/>
  </g>
  <path class="cls-1" d="M89.425781,90.671415V31.480009h11.180664v24.333984h26.47168v-24.333984h11.180664v59.191406h-11.180664v-24.416504h-26.47168v24.416504h-11.180664Z"/>
  <path class="cls-1" d="M164.976562,90.671415v-48.750977h-18.661621v-10.44043h48.503906v10.44043h-18.661621v48.750977h-11.180664Z"/>
  <path class="cls-1" d="M203.696289,90.671415V31.480009h11.180664v48.750488h25.485352v10.440918h-36.666016Z"/>
  <path class="cls-1" d="M263.462891,90.671415V31.480009h11.180664v48.750488h25.485352v10.440918h-36.666016Z"/>
  <path class="cls-1" d="M329.230469,91.904814c-4.549316,0-8.557129-.980469-12.023438-2.939453-3.466797-1.958496-6.179688-4.658203-8.138672-8.097656-1.959473-3.438477-2.938965-7.378418-2.938965-11.817871,0-4.850098.958984-9.069824,2.877441-12.660156,1.91748-3.589844,4.5625-6.37793,7.933105-8.364746s7.248047-2.980469,11.632812-2.980469c4.658203,0,8.618164,1.09668,11.878906,3.288574,3.260742,2.192871,5.672852,5.275391,7.234375,9.248535,1.5625,3.973633,2.110352,8.646484,1.644531,14.01709h-11.057617v-4.11084c0-4.521484-.71875-7.774902-2.157227-9.762207-1.439453-1.986816-3.789062-2.97998-7.049805-2.97998-3.809082,0-6.611328,1.157715-8.405762,3.473145-1.79541,2.315918-2.692383,5.734375-2.692383,10.255859,0,4.138184.896973,7.337402,2.692383,9.598145,1.794434,2.260742,4.432129,3.391113,7.912598,3.391113,2.191895,0,4.069336-.479004,5.631348-1.438965,1.562012-.958496,2.753418-2.342773,3.575684-4.151367l11.180664,3.206055c-1.671875,4.056152-4.30957,7.20752-7.912109,9.454102-3.604492,2.24707-7.542969,3.371094-11.817871,3.371094ZM314.514648,71.598662v-8.303223h29.431152v8.303223h-29.431152Z"/>
  <path class="cls-1" d="M380.034668,91.904814c-4.466797,0-8.384766-1.000977-11.755859-3.000977-3.370117-2-5.995117-4.76123-7.871094-8.282715-1.87793-3.520996-2.816406-7.569824-2.816406-12.146484,0-4.630859.958984-8.70752,2.87793-12.229004,1.917969-3.520996,4.5625-6.268555,7.932617-8.241699,3.371094-1.972656,7.248047-2.959473,11.632812-2.959473,4.466797,0,8.392578,1.000977,11.777344,3.000977,3.383789,2.000488,6.021484,4.761719,7.912109,8.282715,1.891602,3.521484,2.836914,7.570312,2.836914,12.146484,0,4.603516-.953125,8.666504-2.857422,12.1875-1.904297,3.521484-4.548828,6.275879-7.932617,8.262207-3.384766,1.986816-7.296875,2.980469-11.736328,2.980469ZM380.034668,81.463896c3.589844,0,6.268555-1.212891,8.036133-3.637695,1.767578-2.425293,2.651367-5.54248,2.651367-9.351563,0-3.946289-.897461-7.097168-2.692383-9.454102-1.794922-2.356445-4.459961-3.535156-7.995117-3.535156-2.438477,0-4.438477.54834-6.000977,1.644043-1.561523,1.09668-2.719727,2.617188-3.473633,4.562988s-1.129883,4.206543-1.129883,6.782227c0,3.973633.897461,7.131836,2.692383,9.474609,1.793945,2.343262,4.431641,3.514648,7.912109,3.514648Z"/>
  <path class="cls-1" d="M413.001465,90.671415v-44.393555h9.947266v14.715332h1.397461v29.678223h-11.344727ZM443.336426,90.671415v-20.963867c0-1.013184-.054688-2.308105-.164062-3.884277-.109375-1.575684-.452148-3.158203-1.027344-4.747559-.576172-1.588867-1.514648-2.918457-2.816406-3.987305s-3.144531-1.603027-5.52832-1.603027c-.958984,0-1.987305.150879-3.083008.452148-1.095703.301758-2.124023.883789-3.083008,1.74707-.958984.862793-1.74707,2.130859-2.363281,3.802246-.616211,1.671875-.924805,3.891113-.924805,6.658691l-6.412109-3.041504c0-3.507324.711914-6.795898,2.136719-9.865234,1.424805-3.068848,3.569336-5.549316,6.433594-7.44043,2.863281-1.890625,6.473633-2.835938,10.831055-2.835938,3.479492,0,6.316406.589355,8.508789,1.767578s3.898438,2.671875,5.117188,4.480469c1.219727,1.808594,2.089844,3.692871,2.610352,5.651855.520508,1.959473.835938,3.747559.945312,5.364258.109375,1.617188.165039,2.794922.165039,3.535156v24.909668h-11.345703Z"/>
  <path class="cls-1" d="M484.029785,91.904814c-4.083008,0-7.65918-1.027832-10.728516-3.083008s-5.460938-4.850586-7.172852-8.385742c-1.712891-3.535156-2.569336-7.521973-2.569336-11.961426,0-4.521484.870117-8.542969,2.610352-12.064453,1.740234-3.520996,4.185547-6.29541,7.337891-8.32373,3.150391-2.027832,6.849609-3.041992,11.097656-3.041992,4.219727,0,7.769531,1.027832,10.646484,3.083008,2.87793,2.055176,5.055664,4.850586,6.536133,8.385254,1.479492,3.535156,2.219727,7.522461,2.219727,11.961914s-.74707,8.42627-2.240234,11.961426c-1.494141,3.535156-3.720703,6.330566-6.679688,8.385742-2.959961,2.055176-6.645508,3.083008-11.057617,3.083008ZM485.838379,81.95706c2.493164,0,4.487305-.561523,5.980469-1.685059,1.494141-1.123535,2.569336-2.699219,3.227539-4.727539.657227-2.027344.986328-4.383789.986328-7.069824,0-2.685547-.329102-5.041992-.986328-7.070312-.658203-2.027344-1.706055-3.603027-3.144531-4.727051-1.439453-1.123047-3.323242-1.685059-5.652344-1.685059-2.494141,0-4.541992.609863-6.145508,1.829102-1.602539,1.219727-2.788086,2.850098-3.555664,4.891602s-1.150391,4.29541-1.150391,6.761719c0,2.493652.370117,4.761719,1.109375,6.802734.740234,2.041992,1.876953,3.665527,3.412109,4.871094,1.53418,1.206055,3.507812,1.808594,5.918945,1.808594ZM496.032715,90.671415v-30.417969h-1.397461v-28.773438h11.262695v59.191406h-9.865234Z"/>
  <path class="cls-1" d="M519.711426,40.111845v-9.865234h11.180664v9.865234h-11.180664ZM519.711426,90.671415v-44.393555h11.180664v44.393555h-11.180664Z"/>
  <path class="cls-1" d="M544.618652,90.671415v-44.393555h9.947266v14.715332h1.397461v29.678223h-11.344727ZM574.953613,90.671415v-20.963867c0-1.013184-.054688-2.308105-.164062-3.884277-.109375-1.575684-.452148-3.158203-1.027344-4.747559-.576172-1.588867-1.514648-2.918457-2.816406-3.987305s-3.144531-1.603027-5.52832-1.603027c-.958984,0-1.987305.150879-3.083008.452148-1.095703.301758-2.124023.883789-3.083008,1.74707-.958984.862793-1.74707,2.130859-2.363281,3.802246-.616211,1.671875-.924805,3.891113-.924805,6.658691l-6.412109-3.041504c0-3.507324.711914-6.795898,2.136719-9.865234,1.424805-3.068848,3.569336-5.549316,6.433594-7.44043,2.863281-1.890625,6.473633-2.835938,10.831055-2.835938,3.479492,0,6.316406.589355,8.508789,1.767578s3.898438,2.671875,5.117188,4.480469c1.219727,1.808594,2.089844,3.692871,2.610352,5.651855.520508,1.959473.835938,3.747559.945312,5.364258.109375,1.617188.165039,2.794922.165039,3.535156v24.909668h-11.345703Z"/>
  <path class="cls-1" d="M616.469238,91.904814c-4.083008,0-7.65918-1.027832-10.728516-3.083008s-5.460938-4.850586-7.172852-8.385742c-1.712891-3.535156-2.569336-7.521973-2.569336-11.961426,0-4.521484.870117-8.542969,2.610352-12.064453,1.740234-3.520996,4.185547-6.29541,7.337891-8.32373,3.150391-2.027832,6.849609-3.041992,11.097656-3.041992,4.219727,0,7.769531,1.027832,10.646484,3.083008,2.87793,2.055176,5.055664,4.850586,6.536133,8.385254,1.479492,3.535156,2.219727,7.522461,2.219727,11.961914s-.74707,8.42627-2.240234,11.961426c-1.494141,3.535156-3.720703,6.330566-6.679688,8.385742-2.959961,2.055176-6.645508,3.083008-11.057617,3.083008ZM617.455566,111.634794c-2.521484,0-4.918945-.404297-7.193359-1.212891s-4.30957-1.931641-6.103516-3.370117c-1.795898-1.438477-3.254883-3.117676-4.37793-5.035156l10.358398-5.015137c.711914,1.31543,1.732422,2.31543,3.0625,3.000977,1.329102.68457,2.774414,1.027344,4.335938,1.027344,1.671875,0,3.248047-.28125,4.727539-.842285,1.479492-.562012,2.665039-1.397949,3.555664-2.507812s1.308594-2.486816,1.253906-4.130859v-12.907227h1.397461v-34.36377h9.783203v47.435547c0,1.095703-.048828,2.130371-.144531,3.103027s-.266602,1.938477-.513672,2.897949c-.712891,2.713379-2.03418,4.945801-3.966797,6.699707-1.931641,1.753906-4.294922,3.0625-7.089844,3.925781-2.795898.863281-5.824219,1.294922-9.084961,1.294922ZM618.277832,81.95706c2.493164,0,4.487305-.561523,5.980469-1.685059,1.494141-1.123535,2.569336-2.699219,3.227539-4.727539.657227-2.027344.986328-4.383789.986328-7.069824,0-2.685547-.329102-5.041992-.986328-7.070312-.658203-2.027344-1.706055-3.603027-3.144531-4.727051-1.439453-1.123047-3.323242-1.685059-5.652344-1.685059-2.494141,0-4.541992.609863-6.145508,1.829102-1.602539,1.219727-2.788086,2.850098-3.555664,4.891602s-1.150391,4.29541-1.150391,6.761719c0,2.493652.370117,4.761719,1.109375,6.802734.740234,2.041992,1.876953,3.665527,3.412109,4.871094,1.53418,1.206055,3.507812,1.808594,5.918945,1.808594Z"/>
  <path class="cls-1" d="M88.963379,142.226591v-25.583008h3.128148v6.301758h.352959v19.28125h-3.481107ZM107.333251,142.226591v-13.051758c0-1.420898-.133814-2.727539-.399988-3.919922-.266659-1.192383-.693797-2.234375-1.281901-3.126953s-1.348808-1.583008-2.281628-2.073242c-.93282-.489258-2.065877-.734375-3.398686-.734375-1.223236,0-2.301507.213867-3.233842.639648-.933305.426758-1.717282,1.039062-2.352414,1.835938-.634648.797852-1.117057,1.764648-1.44626,2.902344-.329202,1.136719-.494046,2.431641-.494046,3.884766l-2.445987-.544922c0-2.621094.454289-4.824219,1.364323-6.609375.909064-1.78418,2.163814-3.134766,3.763281-4.050781,1.598982-.915039,3.433594-1.373047,5.50335-1.373047,1.520924,0,2.849854.236328,3.986789.709961s2.10127,1.113281,2.893004,1.918945,1.430745,1.725586,1.917033,2.759766c.485804,1.03418.838763,2.131836,1.058392,3.291992.21963,1.161133.329202,2.318359.329202,3.470703v14.070312h-3.480623Z"/>
  <path class="cls-1" d="M128.830786,142.937529c-2.477501,0-4.621922-.553711-6.432776-1.658203-1.811339-1.105469-3.218812-2.661133-4.221934-4.666992-1.003606-2.004883-1.505409-4.358398-1.505409-7.058594,0-2.794922.494046-5.210938,1.481652-7.248047.988091-2.037109,2.379565-3.608398,4.174905-4.713867s3.916488-1.658203,6.362475-1.658203c2.508531,0,4.649072.580078,6.42114,1.741211,1.771583,1.160156,3.112149,2.822266,4.022182,4.986328.909064,2.163086,1.324566,4.745117,1.246508,7.745117h-3.528136v-1.231445c-.063028-3.316406-.772825-5.819336-2.128906-7.508789s-3.336142-2.535156-5.93873-2.535156c-2.72816,0-4.818279.892578-6.268418,2.676758-1.450138,1.785156-2.17545,4.327148-2.17545,7.62793,0,3.220703.725312,5.719727,2.17545,7.49707,1.450138,1.776367,3.508258,2.665039,6.17436,2.665039,1.818612,0,3.406443-.422852,4.763008-1.267578,1.35608-.844727,2.426109-2.064453,3.21057-3.660156l3.222206,1.255859c-1.003606,2.226562-2.48138,3.952148-4.433806,5.175781-1.951941,1.223633-4.15939,1.835938-6.620892,1.835938ZM119.116654,130.406279v-2.913086h19.404507v2.913086h-19.404507Z"/>
  <path class="cls-1" d="M143.130962,142.226591l9.926004-12.933594-9.714132-12.649414h4.139512l7.597347,9.972656,7.526561-9.972656h4.139512l-9.714132,12.649414,9.949277,12.933594h-4.163269l-7.737949-10.256836-7.785463,10.256836h-4.163269Z"/>
  <path class="cls-1" d="M169.238783,119.628935v-2.985352h16.65259v2.985352h-16.65259ZM185.891373,142.226591c-1.426866.299805-2.834339.417969-4.221934.355469-1.387595-.063477-2.626345-.363281-3.716252-.900391-1.089907-.536133-1.917033-1.374023-2.48138-2.510742-.454774-.947266-.702039-1.907227-.740826-2.87793-.039272-.97168-.058665-2.081055-.058665-3.328125v-23.426758h3.433594v23.28418c0,1.074219.012121,1.970703.035393,2.688477.023757.71875.184237,1.354492.48241,1.907227.564347,1.058594,1.461774,1.69043,2.692767,1.894531,1.230993.206055,2.755796.158203,4.574893-.141602v3.055664Z"/>
  <path class="cls-1" d="M203.414239,142.226591v-34.821289h3.457351v34.821289h-3.457351Z"/>
  <path class="cls-1" d="M225.992954,142.937529c-2.477501,0-4.621922-.553711-6.432776-1.658203-1.811339-1.105469-3.218812-2.661133-4.221934-4.666992-1.003606-2.004883-1.505409-4.358398-1.505409-7.058594,0-2.794922.494046-5.210938,1.481652-7.248047.988091-2.037109,2.379565-3.608398,4.174905-4.713867s3.916488-1.658203,6.362475-1.658203c2.508531,0,4.649072.580078,6.42114,1.741211,1.771583,1.160156,3.112149,2.822266,4.022182,4.986328.909064,2.163086,1.324566,4.745117,1.246508,7.745117h-3.528136v-1.231445c-.063028-3.316406-.772825-5.819336-2.128906-7.508789s-3.336142-2.535156-5.93873-2.535156c-2.72816,0-4.818279.892578-6.268418,2.676758-1.450138,1.785156-2.17545,4.327148-2.17545,7.62793,0,3.220703.725312,5.719727,2.17545,7.49707,1.450138,1.776367,3.508258,2.665039,6.17436,2.665039,1.818612,0,3.406443-.422852,4.763008-1.267578,1.35608-.844727,2.426109-2.064453,3.21057-3.660156l3.222206,1.255859c-1.003606,2.226562-2.48138,3.952148-4.433806,5.175781-1.951941,1.223633-4.15939,1.835938-6.620892,1.835938ZM216.278822,130.406279v-2.913086h19.404507v2.913086h-19.404507Z"/>
  <path class="cls-1" d="M249.983505,142.226591l-9.219601-25.583008h3.504379l7.502805,21.035156,7.456261-21.035156h3.551408l-9.220086,25.583008h-3.575165Z"/>
  <path class="cls-1" d="M278.138295,142.937529c-2.477501,0-4.621922-.553711-6.432776-1.658203-1.811339-1.105469-3.218812-2.661133-4.221934-4.666992-1.003606-2.004883-1.505409-4.358398-1.505409-7.058594,0-2.794922.494046-5.210938,1.481652-7.248047.988091-2.037109,2.379565-3.608398,4.174905-4.713867s3.916488-1.658203,6.362475-1.658203c2.508531,0,4.649072.580078,6.42114,1.741211,1.771583,1.160156,3.112149,2.822266,4.022182,4.986328.909064,2.163086,1.324566,4.745117,1.246508,7.745117h-3.528136v-1.231445c-.063028-3.316406-.772825-5.819336-2.128906-7.508789s-3.336142-2.535156-5.93873-2.535156c-2.72816,0-4.818279.892578-6.268418,2.676758-1.450138,1.785156-2.17545,4.327148-2.17545,7.62793,0,3.220703.725312,5.719727,2.17545,7.49707,1.450138,1.776367,3.508258,2.665039,6.17436,2.665039,1.818612,0,3.406443-.422852,4.763008-1.267578,1.35608-.844727,2.426109-2.064453,3.21057-3.660156l3.222206,1.255859c-1.003606,2.226562-2.48138,3.952148-4.433806,5.175781-1.951941,1.223633-4.15939,1.835938-6.620892,1.835938ZM268.424163,130.406279v-2.913086h19.404507v2.913086h-19.404507Z"/>
  <path class="cls-1" d="M296.671556,142.226591v-34.821289h3.457351v34.821289h-3.457351Z"/>
</svg>