<?xml version="1.0" encoding="UTF-8"?>
<svg id="Ebene_2" data-name="Ebene 2" xmlns="http://www.w3.org/2000/svg" viewBox="0 0 977.06 302.4">
  <defs>
    <style>
      .cls-1 {
        fill: #fcfcfc;
      }

      .cls-2 {
        fill: #494748;
      }

      .cls-3 {
        fill: #000203;
      }

      .cls-4 {
        fill: #494747;
      }

      .cls-5 {
        fill: #fefefe;
      }

      .cls-6 {
        fill: #010302;
      }

      .cls-7 {
        fill: #010303;
      }

      .cls-8 {
        fill: #fcd658;
      }
    </style>
  </defs>
  <g id="Ebene_1-2" data-name="Ebene 1">
    <g id="Generatives_Objekt" data-name="Generatives Objekt">
      <path class="cls-1" d="M303.9,293.96C206.49,197.48,105.22,97.89,7.76,1.12,4.97-1.5.31.81.62,4.62c0,0,.03,182.06.03,182.06,2.38,1.58-5.01,118.34,3.86,114.18h296.95c3.43-.22,4.78-4.74,2.44-6.9ZM82.17,159.64c28.04,27.92,56.68,56.48,84.64,84.3H63.74s-.01-102.64-.01-102.64c6.1,6.06,12.03,11.97,18.44,18.34Z"/>
      <g>
        <path class="cls-4" d="M303.9,293.96C206.49,197.48,105.22,97.89,7.76,1.12,4.97-1.5.31.81.62,4.62c0,0,.03,182.06.03,182.06,2.38,1.58-5.01,118.34,3.86,114.18h296.95c3.43-.22,4.78-4.74,2.44-6.9ZM82.17,159.64c28.04,27.92,56.68,56.48,84.64,84.3H63.74s-.01-102.64-.01-102.64c6.1,6.06,12.03,11.97,18.44,18.34Z"/>
        <g>
          <path class="cls-8" d="M290.58,292.34c-4.47-4.39-13.36-13.27-17.8-17.68-2.81,1.93-6.96,9.31-11.02,5.4-4.36-3.78,2.99-8.53,5.16-11.12l-9.45-9.45c-4.02,4.12-8.99,9.06-13.11,13.09-4.2,3.94-9.48-2.75-5.11-6.3l12.5-12.38c-1.96-1.99-6.88-6.86-8.92-8.88-2.64,2.22-7.26,9.61-11.16,5.39-3.96-3.87,3.33-8.4,5.5-10.98-1.85-1.8-7.54-7.43-9.46-9.33-1.98,1.88-11.2,11.04-13.32,13.16-1.47,1.45-3.88,1.18-5.32-.15-1.31-1.2-2.02-3.66-.59-5.11,1.92-1.95,11.82-11.89,13.44-13.7-1.74-1.71-7.13-7.01-8.8-8.62-2.72,2.31-7.97,10.16-11.61,4.72-2.7-3.88,3.91-7.83,5.88-10.32l-9.48-9.41c-3.71,3.45-9.37,9.23-12.9,12.86-4.22,4.27-10.01-2.38-5.45-6.12l12.56-12.41-8.85-8.79c-2.39,1.88-6.86,8.8-10.57,5.7-5.12-3.55,2.23-8.46,4.53-11.05.8-.66-8.87-8.91-9.38-9.89l-1.37,1.49-11.79,11.76c-1.56,1.55-4.24,1.03-5.53-.41-1.51-1.67-1.32-4.13.25-5.71l12.74-12.72-5.56-5.49c-4.86-5.08-2.77-3.27-8.6,1.85-3.66,3.89-9.72-2.08-5.65-5.65.01-.3,5.97-5.21,4.86-5.41-.92-.9-8.58-8.51-9.7-9.62l-12.9,12.87c-1.92,2.01-5.74,1.24-6.64-1.3-2.37-4.08,12.09-14.36,13.83-17.17l-9-8.98c-2.64,2.2-7.11,9.42-11.04,5.26-3.91-3.76,2.97-8.22,5.14-10.74-1.92-2.7-7.22-7.19-9.68-9.89-.17-2.44-13.53,12.88-13.87,12.58-3.55,3.1-8.74-2.67-5.29-5.94,3.2-3.23,9.66-9.69,12.9-12.88-2.07-2.03-7.03-6.93-9.14-9.02-2.64,2.21-6.8,8.86-10.75,5.15-4.1-3.65,2.27-7.95,4.6-10.38,1.58-.25-9.61-9.83-9.52-10.18-.17-.17-.53.12-.63.22l-12.32,12.38c-3.33,4-9.8-1.07-6.3-5.12,3.18-3.52,10.47-9.88,13.18-13.5-.31-.01-9.39-9.96-9.74-9.29-2.51,2.03-6.05,8.2-9.97,5.71-5.49-3.5,1.43-8.48,4.15-11.21.9-.49-6.38-6.5-6.57-7.02l-12.18,12.17c-1.59,1.59-4.02,1.75-5.72.26-1.4-1.23-1.98-3.91-.46-5.44l12.64-12.74c-2.37-2.27-8.87-9.12-11.42-11.18-3.17,2.58-7.35,10.06-11.68,5.15-3.17-3.84,3.93-8.28,5.84-10.76,1.01.46-17.36-17.95-16.01-15.78-.02,64.53-.1,215.53.04,278.37.4.02,281.35-.04,281.71.02.16-.11.1-.29-.12-.34ZM63.74,243.93v-102.63c34.12,33.91,68.95,68.7,103.07,102.64H63.74Z"/>
          <path class="cls-2" d="M179.66,245.19c-33.58-33.38-83.19-82.81-116.91-116.43-2.33-2.55-7.13-.99-7.21,2.69.1,29.2-.16,84.47-.05,112.95-.36,3.51.2,7.92,4.85,7.69l116.18-.02c3.54-.03,5.45-4.48,3.14-6.88ZM63.74,243.93v-102.63c34.1,33.91,69,68.74,103.07,102.64H63.74Z"/>
        </g>
      </g>
    </g>
    <g id="Generatives_Objekt-2" data-name="Generatives Objekt">
      <path class="cls-7" d="M976.67,169.41c-2.83,61.29-100.22,64.13-109.42,4.45l18.5-8.25c5.93,35.67,56.71,49.37,66.56,9.09,4.02-22.64-5.79-37.19-25.65-46.6-10.08-4.78-19.97-10.11-29.67-15.98-33.94-19.43-33.41-78.91,4.45-93.26,29.4-11.14,63.6-.12,70.77,32.54-6.1,3.04-12.2,5.88-18.32,8.52-17.43-63.43-91.74-7.52-42.14,30.03,37.86,19.89,69.15,28.93,64.92,79.46Z"/>
      <path class="cls-3" d="M385.75,29.39l-10.66,23.11c-76.01-71.16-54.24,126.1-57.69,161.08l-26.2-.02-.41.87V18.4l.53.86,26.18-.12.35,33.06c2.42,1.37,2.98-2.76,3.6-4.34,8.47-31.11,42.56-46.05,64.3-18.47Z"/>
      <path class="cls-3" d="M691.85,19.54c-8.04-.1-16.05-.07-24.04.08l-1.68,28.37c-.87.91-1.53.94-1.96.09-7.83-21.95-23.44-34.86-47.56-32.69-47.62,4.28-57.03,63.46-57.08,101.84-.04,37.76,10.91,96.53,58.1,98.47,24.51,1.01,39.42-12.02,47.12-34.49.58-.9,1.19-.76,1.96-.17-1.96,33.39,10.46,95.54-36.23,101.54-20.41,1.79-35.36-8.54-44.56-26.26l-16,15.05c6.08,11.35,17.29,22.83,28.4,26.19,141.44,42.62,81.49-208.62,93.53-278.02ZM665.09,139.31c-2.01,24.68-11.05,57.86-40.4,56.04-15.8-.97-25.48-13.2-30.73-27.42-11.16-38.6-14.53-94.03,13.56-126.12,10.81-9.42,27.25-9.58,38.32-.38,24.38,24.2,20.37,65.96,19.25,97.88Z"/>
      <g>
        <path class="cls-5" d="M529.51,187.3c-1.4-22.46,3.75-118.13-4.66-137.92-15.55-49.7-93.45-44.97-112.81-.34l17.15,15.3c6.22-12.69,13.78-25.38,27.65-30.38,15.38-4.96,32.27-1.17,39.6,13.9,9.19,19.15,5.22,48.43,6.1,69.32-26.99-45.82-94.77-18.29-95.51,31.33-11.04,63.61,65.4,100.06,96.18,38.37.59,9.54,1.17,18.34,2.73,27.58h27.46c-2.69-9.01-3.56-17.81-3.89-27.16ZM499.85,167.18c-19.58,55.08-77.9,28.09-65.17-24.38,13.81-58.14,81.13-29.31,65.17,24.38ZM840.79,187.91c-6.27-44.33,22.03-153.69-37.35-170.9-30.2-9.51-66.41,2.34-80.17,32.01l17.15,15.32c8.26-21.35,29.88-39.81,53.45-29.86,27.59,12.74,17.79,58.43,19.92,82.97-8.5-14.69-20.43-22.77-37.68-23.25-44.88-3.47-67.04,46.37-55.81,84.45,9.31,48.27,76.15,53.61,94.1,8.23l2.76,27.57h27.52c-2.7-8.78-3.5-17.33-3.89-26.54ZM801.61,184.81c-55.07,53.47-83.82-68.96-23.39-73.63,36.77-.87,44.45,50.86,23.39,73.63Z"/>
        <path class="cls-7" d="M840.79,187.91c-6.27-44.33,22.03-153.69-37.35-170.9-30.2-9.51-66.41,2.34-80.17,32.01l17.15,15.32c8.26-21.35,29.88-39.81,53.45-29.86,27.59,12.74,17.79,58.43,19.92,82.97-8.5-14.69-20.43-22.77-37.68-23.25-44.88-3.47-67.04,46.37-55.81,84.45,9.31,48.27,76.15,53.61,94.1,8.23l2.76,27.57h27.52c-2.7-8.78-3.5-17.33-3.89-26.54ZM801.61,184.81c-55.07,53.47-83.82-68.96-23.39-73.63,36.77-.87,44.45,50.86,23.39,73.63Z"/>
        <path class="cls-6" d="M529.51,187.3c-1.4-22.46,3.75-118.13-4.66-137.92-15.55-49.7-93.45-44.97-112.81-.34l17.15,15.3c6.22-12.69,13.78-25.38,27.65-30.38,15.38-4.96,32.27-1.17,39.6,13.9,9.19,19.15,5.22,48.43,6.1,69.32-26.99-45.82-94.77-18.29-95.51,31.33-11.04,63.61,65.4,100.06,96.18,38.37.59,9.54,1.17,18.34,2.73,27.58h27.46c-2.69-9.01-3.56-17.81-3.89-27.16ZM499.85,167.18c-19.58,55.08-77.9,28.09-65.17-24.38,13.81-58.14,81.13-29.31,65.17,24.38Z"/>
      </g>
    </g>
  </g>
</svg>