<?xml version="1.0" encoding="UTF-8"?>
<svg id="Ebene_2" data-name="Ebene 2" xmlns="http://www.w3.org/2000/svg" xmlns:xlink="http://www.w3.org/1999/xlink" viewBox="0 0 465.65 107.29">
  <defs>
    <style>
      .cls-1 {
        fill: #4ecbe4;
      }

      .cls-2 {
        fill: url(#Unbenannter_Verlauf_7);
      }

      .cls-3 {
        fill: #60effa;
      }

      .cls-4 {
        fill: url(#Unbenannter_Verlauf_6);
      }

      .cls-5 {
        fill: url(#Unbenannter_Verlauf_10);
      }

      .cls-6 {
        fill: #4dc9e4;
      }

      .cls-7 {
        fill: #141b2e;
      }

      .cls-8 {
        fill: #5bedfa;
      }

      .cls-9 {
        fill: #151c2e;
      }

      .cls-10 {
        fill: #5ef0fc;
      }
    </style>
    <linearGradient id="Unbenannter_Verlauf_7" data-name="Unbenannter Verlauf 7" x1="97.51" y1="76.15" x2="37.78" y2="-1.37" gradientTransform="translate(0 107.29) scale(1 -1)" gradientUnits="userSpaceOnUse">
      <stop offset="0" stop-color="#5244e9"/>
      <stop offset="1" stop-color="#50c1e7"/>
    </linearGradient>
    <linearGradient id="Unbenannter_Verlauf_6" data-name="Unbenannter Verlauf 6" x1="92.12" y1="91.21" x2="47.59" y2="48.28" gradientTransform="translate(0 107.29) scale(1 -1)" gradientUnits="userSpaceOnUse">
      <stop offset="0" stop-color="#4f48e6"/>
      <stop offset="1" stop-color="#4dbee5"/>
    </linearGradient>
    <linearGradient id="Unbenannter_Verlauf_10" data-name="Unbenannter Verlauf 10" x1="73.14" y1="103.62" x2="19.44" y2="49.42" gradientTransform="translate(0 107.29) scale(1 -1)" gradientUnits="userSpaceOnUse">
      <stop offset="0" stop-color="#534be8"/>
      <stop offset="1" stop-color="#45bde6"/>
    </linearGradient>
  </defs>
  <g id="Ebene_1-2" data-name="Ebene 1">
    <g id="Generatives_Objekt" data-name="Generatives Objekt">
      <polygon class="cls-7" points="323.22 47.74 323.3 58.11 299.35 58.14 299.37 82.65 287.11 82.63 287.09 23.24 325.71 23.24 325.73 33.67 299.36 33.66 299.36 47.76 323.22 47.74"/>
      <rect class="cls-9" x="333.81" y="23.24" width="12.26" height="59.42"/>
      <path class="cls-7" d="M465.65,38.07c-2,7.52-9.96,37.71-11.95,44.58h-12.79s-8-28.36-8-28.36l-7.8,28.37h-12.82s-11.92-44.57-11.92-44.57l12.29-.05,7,29.83,7.3-29.81,12.14.02,7.33,29.79,7.05-29.79h12.17Z"/>
      <path class="cls-7" d="M395.61,51.45c-11.47-27.5-49.66-11.42-40.86,16.8,10.76,29.49,51.25,13.04,40.86-16.8ZM383.59,67.04c-1.22,5.14-7.27,8.42-12.02,5.74-8.2-4.25-7.75-25.56,3.94-25.64,8.62.14,10.58,11.96,8.08,19.9Z"/>
      <path class="cls-7" d="M201.67,23.23l-15.83.02-20.34,59.34,13.22.05,4.47-13.65,21.02.02,4.34,13.61,13.43-.04-20.33-59.37ZM186.32,59.07l7.4-22.32,7.35,22.32h-14.76Z"/>
      <path class="cls-7" d="M149.84,59.58c14.53-6.31,13.45-29.85-1.42-34.85-5.6-2.65-26.36-1.07-32.58-1.48v59.39s12.47.01,12.47.01v-21.11h9.08s10.92,21.11,10.92,21.11l13.86-.05-12.32-23.03ZM137.81,51.39h-9.48s-.02-17.75-.02-17.75l10.21.08c11.93-.34,11.45,18.8-.71,17.67Z"/>
      <path class="cls-7" d="M265.89,60.31l-12.58-.05v-9.53s24.75.02,24.75.02c6.66,35.79-43.27,45.63-52.03,11.84-10.67-39.94,41.89-56.73,51.17-20.31l-12.52-.03c-4.28-14.12-25.19-9.53-26.5,4.19-1.66,8.01-.65,18.56,6.33,23.41,7.75,5.47,21.53,1.29,21.38-9.55Z"/>
      <path class="cls-2" d="M41.7,105.67c-2.56,2.3-6.25,2.14-8.6-.4-2.13-2.3-2.18-5.83-.15-8.22l1.2-1.26,3.46-3.53,2.88-2.95,2.98-3.04,3.11-3.17,2.4-2.46,2.88-2.95,4.14-4.21,3.98-4.05,3.92-3.98,3.21-3.27,2.91-2.98,3.11-3.17,3.43-3.5,3.21-3.27,4.11-4.18,3.79-3.85,4.21-4.27c.59-.6,1.08-1.22,1.5-1.94.1-.17.08-.38.24-.55,1.52-1.54,3.58-1.93,5.7-1.6.73.11,1.3.43,1.87.86,1.73,1.29,2.67,3.24,2.54,5.41-.08,1.45-.61,2.78-1.62,3.85l-2.07,2.4-4.43,5.28-4.62,4.78-9.21,9.43-3.05,3.11-3.15,3.21-3.88,3.95-3.95,4.02-3.95,4.02-3.4,3.47-3.66,3.72-3.24,3.3-2.93,2.96-.79.83-3.07,3.14-3.49,3.56-1.52,1.53h0Z"/>
      <path class="cls-4" d="M57.32,59.09l-.93.93-.27.22c-.89.72-1.93,1.13-3.06,1.28-2.08.26-4.1-.51-5.45-2.12-2.06-2.45-1.83-6.04.34-8.37l2.39-2.46,4.33-4.4,3.69-3.76,3.43-3.5,3.53-3.59,3.34-3.4,3.79-3.85,10.78-10.95c2.13-1.83,5.14-2.11,7.49-.58,3.27,2.2,3.54,6.95.89,9.66l-4.9,5-2.71,2.74-3.88,3.95-3.11,3.17-4.01,4.08-3.69,3.76-2.79,2.85-3.24,3.3-2.98,3.04-2.67,2.7-.32.29h0Z"/>
      <path class="cls-5" d="M31.1,54.88l-.33.43-3.22,3.17c-1.23,1.07-2.81,1.48-4.4,1.38-1.88-.13-3.59-1.16-4.56-2.6-1.15-1.7-1.38-3.71-.71-5.57.34-.92.79-1.74,1.47-2.43l2.88-2.94,4.72-4.79,4.73-4.79,4.96-5.02,4.82-4.89,4.99-5.05,5.99-6.06,5.96-6.02,4.99-5.04c.59-.6,1.09-1.17,1.77-1.7,1.5-1.16,3.39-1.61,5.35-1.1,1.57.41,3.08,1.55,3.84,3.18,1.11,2.37.65,5.22-1.15,7.15l-3.5,3.56-4.18,4.24-5.82,5.9-4.41,4.46-5.08,5.15-3.48,3.51-.57.61-4.34,4.4-3.87,3.9-.41.44-2.36,2.43-2.96,2.99-1.12,1.11h0Z"/>
      <path class="cls-6" d="M11.64,43.7l-1.41,1.42c-1.66,1.53-4.02,2.01-6.15,1.22-2.29-.85-3.86-2.96-4.06-5.39-.15-1.93.61-3.65,1.94-5l2.34-2.39,3.24-3.3,4.47-4.53,5.05-5.11,2.9-2.92c1.25-1.05,2.73-1.55,4.36-1.43,2.17.17,4.03,1.49,4.99,3.43,1.15,2.32.75,5.23-1.02,7.04l-2.24,2.3-3.27,3.34-3.92,3.98-3.43,3.5-3.8,3.86h0Z"/>
      <path class="cls-8" d="M45.24,6.8c-.12,3.09-2.41,5.81-5.55,6.13-2.21.22-4.31-.71-5.58-2.51-1.98-2.79-1.62-6.59.94-8.89,1.42-1.28,3.32-1.78,5.21-1.42,1.35.26,2.47.92,3.38,1.95,1.16,1.29,1.67,3,1.61,4.74h0Z"/>
      <path class="cls-1" d="M94.54,82.96c-2.23,2.04-5.59,2.15-7.91.26l-.78-.78c-1.48-1.76-1.85-4.17-1.05-6.33.27-.72.6-1.37,1.13-1.92l1.79-1.84,4.33-4.4,2.11-2.11.64-.6c.94-.89,2.23-1.3,3.54-1.38,1.83-.11,3.57.54,4.8,1.88.39.43.75.86,1.01,1.4.86,1.8.86,3.93-.04,5.72-.41.82-1.02,1.41-1.65,2.05l-3.27,3.34-3.62,3.69-1.02,1.03h0Z"/>
      <circle class="cls-10" cx="68.22" cy="100.87" r="6.3"/>
      <path class="cls-1" d="M23.02,93.97c-1.05.93-2.31,1.54-3.69,1.64-1.96.14-3.8-.57-5.08-2.07-2.04-2.38-1.98-6,.11-8.34l1.22-1.25,3.23-3.3,3.11-3.17,3.18-3.24,3.76-3.82,2.88-2.89c2.34-2.17,6.14-2.01,8.32.29,1.07,1.13,1.65,2.54,1.71,4.08.06,1.7-.42,3.37-1.58,4.58l-.83.87-2.85,2.91-3.43,3.5-3.24,3.3-3.43,3.5-2.66,2.71-.7.7h0Z"/>
      <circle class="cls-3" cx="7.04" cy="70.54" r="6.18"/>
    </g>
  </g>
</svg>