<?xml version="1.0" encoding="UTF-8"?>
<svg id="Ebene_2" data-name="Ebene 2" xmlns="http://www.w3.org/2000/svg" xmlns:xlink="http://www.w3.org/1999/xlink" viewBox="0 0 425 435.19">
  <defs>
    <style>
      .cls-1 {
        fill: #4ecbe4;
      }

      .cls-2 {
        fill: url(#Unbenannter_Verlauf_3);
      }

      .cls-3 {
        fill: #60effa;
      }

      .cls-4 {
        fill: url(#Unbenannter_Verlauf_5);
      }

      .cls-5 {
        fill: #4dc9e4;
      }

      .cls-6 {
        fill: url(#Unbenannter_Verlauf_4);
      }

      .cls-7 {
        fill: #5bedfa;
      }

      .cls-8 {
        fill: #5ef0fc;
      }
    </style>
    <linearGradient id="Unbenannter_Verlauf_3" data-name="Unbenannter Verlauf 3" x1="395.49" y1="126.32" x2="153.23" y2="440.75" gradientUnits="userSpaceOnUse">
      <stop offset="0" stop-color="#5244e9"/>
      <stop offset="1" stop-color="#50c1e7"/>
    </linearGradient>
    <linearGradient id="Unbenannter_Verlauf_5" data-name="Unbenannter Verlauf 5" x1="373.63" y1="65.22" x2="193.02" y2="239.34" gradientUnits="userSpaceOnUse">
      <stop offset="0" stop-color="#4f48e6"/>
      <stop offset="1" stop-color="#4dbee5"/>
    </linearGradient>
    <linearGradient id="Unbenannter_Verlauf_4" data-name="Unbenannter Verlauf 4" x1="296.64" y1="14.91" x2="78.84" y2="234.75" gradientUnits="userSpaceOnUse">
      <stop offset="0" stop-color="#534be8"/>
      <stop offset="1" stop-color="#45bde6"/>
    </linearGradient>
  </defs>
  <g id="Ebene_1-2" data-name="Ebene 1">
    <g id="Generatives_Objekt" data-name="Generatives Objekt">
      <g>
        <g>
          <path class="cls-2" d="M169.15,428.61c-10.38,9.33-25.34,8.68-34.88-1.63-8.65-9.33-8.83-23.65-.59-33.34l4.88-5.1,14.02-14.31,11.7-11.96,12.09-12.35,12.6-12.87,9.74-9.98,11.7-11.95,16.8-17.06,16.15-16.43,15.89-16.15,13-13.27,11.82-12.09,12.62-12.86,13.92-14.18,13.01-13.27,16.66-16.95,15.38-15.63,17.06-17.32c2.38-2.42,4.38-4.93,6.07-7.86.39-.68.31-1.54.98-2.23,6.15-6.26,14.54-7.84,23.13-6.5,2.96.46,5.27,1.73,7.59,3.47,7.01,5.23,10.81,13.16,10.3,21.95-.34,5.88-2.48,11.29-6.56,15.6l-8.41,9.73-17.95,21.43-18.73,19.37-37.35,38.25-12.37,12.62-12.76,13-15.75,16.02-16.02,16.29-16.02,16.29-13.8,14.06-14.83,15.1-13.15,13.39-11.9,12.02-3.21,3.36-12.47,12.73-14.17,14.43-6.17,6.2Z"/>
          <g>
            <path class="cls-4" d="M232.51,239.66l-3.76,3.79-1.1.9c-3.59,2.93-7.84,4.6-12.43,5.18-8.44,1.07-16.62-2.05-22.1-8.58-8.34-9.92-7.41-24.49,1.39-33.96l9.71-9.96,17.58-17.85,14.98-15.24,13.93-14.19,14.32-14.57,13.54-13.8,15.39-15.63,43.71-44.42c8.64-7.41,20.83-8.55,30.38-2.36,13.26,8.91,14.37,28.17,3.59,39.17l-19.86,20.26-10.98,11.12-15.73,16.03-12.63,12.87-16.28,16.55-14.96,15.24-11.31,11.57-13.13,13.39-12.08,12.35-10.84,10.96-1.31,1.18Z"/>
            <g>
              <path class="cls-6" d="M126.14,222.61l-1.32,1.73-13.07,12.85c-4.97,4.36-11.39,6.02-17.86,5.59-7.62-.51-14.55-4.72-18.48-10.55-4.66-6.9-5.61-15.06-2.87-22.58,1.36-3.74,3.22-7.04,5.98-9.86l11.7-11.94,19.16-19.44,19.18-19.44,20.1-20.35,19.57-19.84,20.23-20.49,24.3-24.56,24.16-24.43,20.24-20.46c2.4-2.42,4.41-4.76,7.16-6.88,6.08-4.69,13.76-6.55,21.68-4.47,6.36,1.67,12.49,6.28,15.59,12.9,4.51,9.63,2.63,21.18-4.66,29l-14.18,14.45-16.94,17.21-23.6,23.93-17.9,18.1-20.61,20.89-14.13,14.24-2.3,2.48-17.59,17.83-15.71,15.81-1.65,1.77-9.58,9.87-12.02,12.14-4.56,4.5Z"/>
              <path class="cls-5" d="M47.2,177.25l-5.72,5.77c-6.72,6.22-16.3,8.14-24.95,4.93-9.3-3.45-15.67-11.99-16.45-21.88-.62-7.83,2.49-14.8,7.86-20.28l9.5-9.7,13.14-13.39,18.12-18.39,20.47-20.74,11.76-11.86c5.05-4.25,11.09-6.3,17.7-5.78,8.81.69,16.34,6.05,20.24,13.93,4.66,9.41,3.03,21.21-4.12,28.54l-9.08,9.31-13.26,13.53-15.88,16.16-13.93,14.19-15.41,15.67Z"/>
            </g>
          </g>
          <path class="cls-7" d="M183.5,27.59c-.48,12.54-9.76,23.58-22.51,24.87-8.97.91-17.49-2.9-22.65-10.17-8.05-11.33-6.58-26.73,3.8-36.06,5.77-5.2,13.47-7.24,21.13-5.77,5.47,1.05,10.01,3.75,13.72,7.9,4.69,5.25,6.79,12.15,6.52,19.23Z"/>
        </g>
        <g>
          <path class="cls-1" d="M383.45,336.5c-9.06,8.27-22.67,8.71-32.1,1.05l-3.16-3.17c-6-7.15-7.5-16.91-4.24-25.66,1.09-2.91,2.42-5.55,4.6-7.8l7.25-7.47,17.56-17.84,8.54-8.55,2.59-2.44c3.83-3.6,9.06-5.29,14.34-5.61,7.42-.45,14.48,2.19,19.45,7.64,1.6,1.76,3.04,3.48,4.09,5.66,3.5,7.31,3.5,15.95-.16,23.21-1.67,3.31-4.15,5.71-6.69,8.3l-13.26,13.54-14.68,14.95-4.14,4.19Z"/>
          <g>
            <circle class="cls-8" cx="276.71" cy="409.11" r="25.57"/>
            <g>
              <path class="cls-1" d="M93.39,381.13c-4.26,3.76-9.36,6.24-14.98,6.65-7.97.57-15.41-2.32-20.61-8.39-8.26-9.64-8.03-24.33.44-33.83l4.93-5.09,13.1-13.39,12.62-12.87,12.88-13.14,15.24-15.48,11.67-11.72c9.51-8.8,24.9-8.17,33.73,1.17,4.34,4.59,6.7,10.32,6.92,16.55.24,6.88-1.7,13.66-6.42,18.58l-3.37,3.51-11.55,11.81-13.91,14.19-13.14,13.4-13.91,14.19-10.79,11.01-2.84,2.85Z"/>
              <circle class="cls-3" cx="28.57" cy="286.09" r="25.08"/>
            </g>
          </g>
        </g>
      </g>
    </g>
  </g>
</svg>