<?xml version="1.0" encoding="UTF-8"?>
<svg xmlns="http://www.w3.org/2000/svg" viewBox="220 356 560 165" width="560" height="165" preserveAspectRatio="xMidYMid meet" role="img" aria-label="IxI-Enki cartouche">
  <defs>
    <style>
      :root{ --ix000T:11s; --ix000Th:5.5s; --ix000Tq:2.75s }
      /* Wordmark is outlined to paths — Papyrus for the two "I", Gianna
         (Peter Wiegel, OFL + GPL font-exception) for "x", "-" and "Enki".
         No webfont needed; renders identically for every visitor. Do not
         re-introduce text elements: that would depend on locally installed
         fonts again, and Gianna replaced a personal-use-only face. */
      .ix000ink{ fill:#ffffff; stroke:#768eac; stroke-width:1.1; paint-order:stroke fill }
      .ix000ink-deep{ fill:none; stroke:#5a6d85; stroke-width:2.8; opacity:.45; paint-order:stroke }
      .ix000ink-shim{ fill:#ffffff; stroke:#eaf2fc; stroke-width:2; paint-order:stroke fill }
      .ix000edge{ fill:none; stroke:#bbcbe4; stroke-width:2.4 }
      .ix000wash{ transform-origin:500px 437px; animation:ix000washb var(--ix000T) ease-in-out infinite; animation-delay:-1.82s; animation-fill-mode:both }
      .ix000shim{ animation:ix000shmove var(--ix000Th) linear infinite, ix000shfade var(--ix000Th) ease-in-out infinite }
      .ix000shclip{ animation:ix000shmove var(--ix000Th) linear infinite }
      .ix000scroll{ animation:ix000scr var(--ix000T) linear infinite; animation-delay:-2.75s }
      .ix000sh1{ animation:ix000shoot var(--ix000Th) ease-in infinite }
      .ix000sh2{ animation:ix000shoot var(--ix000Th) ease-in 1.83s infinite }
      .ix000sh3{ animation:ix000shoot var(--ix000T) ease-in 3.67s infinite }
      .ix000edgeglow{ transform-origin:500px 437px; animation:ix000washb var(--ix000T) ease-in-out infinite; animation-delay:-1.82s; animation-fill-mode:both }
      .ix000rosepulse{ transform-origin:0 0; animation:ix000roseb var(--ix000T) ease-in-out infinite }
      @keyframes ix000washb{ 0%,100%{ opacity:.2 } 50%{ opacity:.38 } }
      @keyframes ix000shmove{ 0%{ transform:translateX(-80px) } 66%{ transform:translateX(329px) } 100%{ transform:translateX(540px) } }
      @keyframes ix000shfade{ 0%{ opacity:0 } 8%{ opacity:1 } 66%{ opacity:1 } 100%{ opacity:0 } }
      @keyframes ix000scr{ to{ transform:translate(-28px,-28px) } }
      @keyframes ix000shoot{ 0%{ transform:translate(-30px,-16px); opacity:0 } 12%{ opacity:.78 } 32%{ transform:translate(170px,58px); opacity:0 } 100%{ opacity:0 } }
      @keyframes ix000roseb{ 0%,100%{ transform:scale(1) } 50%{ transform:scale(1.04) } }
      @media (prefers-reduced-motion:reduce){
        *, *::before, *::after{ animation:none !important }
        animate, animateTransform, set{ display:none }
      }
    </style>
    <radialGradient id="ix000-glow" cx="50%" cy="40%" r="62%"><stop offset="0" stop-color="#bbcbe4" stop-opacity=".19"/><stop offset="100%" stop-color="#bbcbe4" stop-opacity="0"/></radialGradient>
    <linearGradient id="ix000-warm" x1="0" y1="0" x2="1" y2="1"><stop offset="0" stop-color="#f7f8f5"/><stop offset=".5" stop-color="#f4f5f1"/><stop offset="1" stop-color="#ccd9ef"/></linearGradient>
    <linearGradient id="ix000-cdk" x1="0" y1="0" x2="0" y2="1"><stop offset="0" stop-color="#35404d"/><stop offset="1" stop-color="#1a1f26"/></linearGradient>
    <linearGradient id="ix000-sheen" x1="0" y1="0" x2="0" y2="1"><stop offset="0" stop-color="#ffffff" stop-opacity=".2"/><stop offset="1" stop-color="#ffffff" stop-opacity="0"/></linearGradient>
    <linearGradient id="ix000-cardsheen" x1="0" y1="0" x2="0" y2="1"><stop offset="0" stop-color="#ffffff" stop-opacity=".28"/><stop offset="1" stop-color="#ffffff" stop-opacity="0"/></linearGradient>
    <radialGradient id="ix000-wash" cx="50%" cy="44%" r="66%"><stop offset="0" stop-color="#c6d6f4" stop-opacity=".24"/><stop offset="100%" stop-color="#c6d6f4" stop-opacity="0"/></radialGradient>
    <linearGradient id="ix000-shimg" x1="0" y1="0" x2="1" y2="0">
      <stop offset="0" stop-color="#dce6f7" stop-opacity="0"/>
      <stop offset=".18" stop-color="#ffffff" stop-opacity=".16"/>
      <stop offset=".42" stop-color="#ffffff" stop-opacity=".58"/>
      <stop offset=".5" stop-color="#f4f7fc" stop-opacity=".72"/>
      <stop offset=".58" stop-color="#ffffff" stop-opacity=".55"/>
      <stop offset=".82" stop-color="#ccd9ef" stop-opacity=".18"/>
      <stop offset="1" stop-color="#889fba" stop-opacity="0"/>
      <animate attributeName="x1" values="0;.08;0" keyTimes="0;.5;1" calcMode="linear" dur="5.5s" begin="0s" repeatCount="indefinite"/>
      <animate attributeName="x2" values="1;.92;1" keyTimes="0;.5;1" calcMode="linear" dur="5.5s" begin="0s" repeatCount="indefinite"/>
    </linearGradient>
    <linearGradient id="ix000-shimg2" x1="0" y1="0" x2="1" y2="0">
      <stop offset="0" stop-color="#fff" stop-opacity="0"/>
      <stop offset=".35" stop-color="#fff" stop-opacity=".28"/>
      <stop offset=".5" stop-color="#fff" stop-opacity=".95"/>
      <stop offset=".65" stop-color="#fff" stop-opacity=".28"/>
      <stop offset="1" stop-color="#fff" stop-opacity="0"/>
    </linearGradient>
    <linearGradient id="ix000-shoot" x1="0" y1="0" x2="1" y2="0"><stop offset="0" stop-color="#fff" stop-opacity="0"/><stop offset=".6" stop-color="#fff" stop-opacity=".7"/><stop offset="1" stop-color="#fff" stop-opacity="1"/></linearGradient>
    <radialGradient id="ix000-bloba" cx="50%" cy="50%" r="50%"><stop offset="0" stop-color="#889fba" stop-opacity=".62"/><stop offset="100%" stop-color="#889fba" stop-opacity="0"/></radialGradient>
    <radialGradient id="ix000-blobb" cx="50%" cy="50%" r="50%"><stop offset="0" stop-color="#bbcbe4" stop-opacity=".52"/><stop offset="100%" stop-color="#bbcbe4" stop-opacity="0"/></radialGradient>
    <radialGradient id="ix000-neb" cx="50%" cy="50%" r="50%"><stop offset="0" stop-color="#889fba" stop-opacity=".54"/><stop offset="100%" stop-color="#889fba" stop-opacity="0"/></radialGradient>
    <radialGradient id="ix000-nebb" cx="50%" cy="50%" r="50%"><stop offset="0" stop-color="#bbcbe4" stop-opacity=".48"/><stop offset="100%" stop-color="#bbcbe4" stop-opacity="0"/></radialGradient>
    <radialGradient id="ix000-nebc" cx="50%" cy="50%" r="50%"><stop offset="0" stop-color="#bbcbe4" stop-opacity=".42"/><stop offset="100%" stop-color="#889fba" stop-opacity="0"/></radialGradient>
    <radialGradient id="ix000-nebd" cx="50%" cy="50%" r="50%"><stop offset="0" stop-color="#dce6f7" stop-opacity=".32"/><stop offset="100%" stop-color="#889fba" stop-opacity="0"/></radialGradient>
    <filter id="ix000-blur" x="-20%" y="-20%" width="140%" height="140%"><feGaussianBlur stdDeviation="0.78"/></filter>
    <filter id="ix000-shblur" x="-40%" y="-20%" width="180%" height="140%"><feGaussianBlur stdDeviation="3.4" edgeMode="duplicate"/></filter>
    <filter id="ix000-shbright" x="-8%" y="-8%" width="116%" height="116%"><feGaussianBlur in="SourceGraphic" stdDeviation=".42" result="b"/><feComponentTransfer in="b" result="br"><feFuncA type="linear" slope="1.5"/></feComponentTransfer><feMerge><feMergeNode in="br"/><feMergeNode in="SourceGraphic"/></feMerge></filter>
    <filter id="ix000-inkwarp" x="-4%" y="-8%" width="108%" height="116%"><feTurbulence type="fractalNoise" baseFrequency="0.038 0.055" numOctaves="2" seed="4" result="n"><animate attributeName="baseFrequency" values="0.034 0.048;0.044 0.062;0.034 0.048" dur="11s" repeatCount="indefinite"/></feTurbulence><feDisplacementMap in="SourceGraphic" in2="n" scale=".9" xChannelSelector="R" yChannelSelector="G"/></filter>
    <filter id="ix000-emboss" x="-12%" y="-14%" width="124%" height="128%">
      <feGaussianBlur in="SourceAlpha" stdDeviation=".6" result="blur"/>
      <feOffset in="blur" dx="0" dy="1.2" result="off"/>
      <feFlood flood-color="#2a3542" flood-opacity=".55" result="shadow"/>
      <feComposite in="shadow" in2="off" operator="in" result="drop"/>
      <feOffset in="SourceAlpha" dx="0" dy="-.7" result="off2"/>
      <feFlood flood-color="#ffffff" flood-opacity=".42" result="hi"/>
      <feComposite in="hi" in2="off2" operator="in" result="lift"/>
      <feMerge><feMergeNode in="drop"/><feMergeNode in="lift"/><feMergeNode in="SourceGraphic"/></feMerge>
    </filter>
    <filter id="ix000-diffuse" x="-8%" y="-10%" width="116%" height="120%">
      <feGaussianBlur in="SourceAlpha" stdDeviation=".4" result="a"/>
      <feDiffuseLighting in="a" surfaceScale="2.2" diffuseConstant=".85" lighting-color="#eef3fa" result="lit"><feDistantLight azimuth="225" elevation="48"/></feDiffuseLighting>
      <feComposite in="lit" in2="SourceAlpha" operator="in" result="mask"/>
      <feBlend in="SourceGraphic" in2="mask" mode="soft-light"/>
    </filter>
    <filter id="ix000-edgeshadow" x="-6%" y="-6%" width="112%" height="112%">
      <feDropShadow dx="0" dy="1.5" stdDeviation="2.2" flood-color="#889fba" flood-opacity=".35"/>
      <feDropShadow dx="0" dy="-.8" stdDeviation="1" flood-color="#ffffff" flood-opacity=".18"/>
    </filter>
    <filter id="ix000-edgespec" x="-8%" y="-8%" width="116%" height="116%">
      <feGaussianBlur in="SourceAlpha" stdDeviation=".5" result="a"/>
      <feSpecularLighting in="a" surfaceScale="3" specularConstant=".65" specularExponent="22" lighting-color="#f4f7fc" result="spec"><fePointLight x="320" y="360"><animate attributeName="x" values="320;680;320" keyTimes="0;.5;1" calcMode="linear" dur="11s" begin="-1.82s" repeatCount="indefinite"/><animate attributeName="y" values="360;470;360" keyTimes="0;.5;1" calcMode="linear" dur="5.5s" begin="-1.82s" repeatCount="indefinite"/></fePointLight></feSpecularLighting>
      <feComposite in="spec" in2="SourceAlpha" operator="in" result="sm"/>
      <feBlend in="SourceGraphic" in2="sm" mode="screen"/>
    </filter>
    <filter id="ix000-rosespec" x="-40%" y="-40%" width="180%" height="180%">
      <feGaussianBlur in="SourceAlpha" stdDeviation=".35" result="a"/>
      <feSpecularLighting in="a" surfaceScale="4" specularConstant=".7" specularExponent="18" lighting-color="#eef2f7" result="rs"><feDistantLight azimuth="210" elevation="55"><animate attributeName="azimuth" values="200;240;200" dur="11s" repeatCount="indefinite"/></feDistantLight></feSpecularLighting>
      <feComposite in="rs" in2="SourceAlpha" operator="in" result="rm"/>
      <feBlend in="SourceGraphic" in2="rm" mode="screen"/>
    </filter>
    <clipPath id="ix000-cclip"><rect x="286" y="372" width="428" height="130" rx="12"/></clipPath>
    <clipPath id="ix000-shclip" clipPathUnits="userSpaceOnUse"><g class="ix000shclip"><rect x="228" y="418" width="108" height="108" rx="4" transform="skewX(-16)"/></g></clipPath>
    <pattern id="ix000-grid" width="28" height="28" patternUnits="userSpaceOnUse"><path d="M28 0H0V28" fill="none" stroke="#889fba" stroke-width="1" opacity=".17"/></pattern>
    <linearGradient id="ix000-fill" x1="0" y1="0" x2="1" y2="1" spreadMethod="reflect" gradientUnits="objectBoundingBox">
      <stop offset="0" stop-color="#e4ebf6"><animate attributeName="stop-color" values="#e4ebf6;#f8fafc;#dce6f4;#e4ebf6" keyTimes="0;.33;.66;1" calcMode="linear" dur="11s" begin="-1.82s" repeatCount="indefinite"/></stop>
      <stop offset=".22" stop-color="#ffffff"/>
      <stop offset=".45" stop-color="#d0dcf0"><animate attributeName="stop-color" values="#d0dcf0;#eef3fa;#c4d4ea;#d0dcf0" keyTimes="0;.33;.66;1" calcMode="linear" dur="11s" begin="-3.67s" repeatCount="indefinite"/></stop>
      <stop offset=".68" stop-color="#ffffff"/>
      <stop offset=".86" stop-color="#c8d6ea"/>
      <stop offset="1" stop-color="#f4f6fa"/>
      <animateTransform attributeName="gradientTransform" type="translate" values="-0.65,-0.55;0.65,0.55;-0.65,-0.55" keyTimes="0;.5;1" calcMode="linear" dur="11s" begin="-1.82s" repeatCount="indefinite"/>
    </linearGradient>
    <linearGradient id="ix000-fill-shim" x1="0" y1="0" x2="1" y2="0" gradientUnits="objectBoundingBox">
      <stop offset="0" stop-color="#ffffff" stop-opacity="0"/>
      <stop offset=".38" stop-color="#ffffff" stop-opacity="0"/>
      <stop offset=".5" stop-color="#ffffff" stop-opacity=".98"/>
      <stop offset=".62" stop-color="#ffffff" stop-opacity="0"/>
      <stop offset="1" stop-color="#ffffff" stop-opacity="0"/>
      <animateTransform attributeName="gradientTransform" type="translate" values="-1.2,0;1.2,0;-1.2,0" keyTimes="0;.5;1" calcMode="linear" dur="5.5s" begin="0s" repeatCount="indefinite"/>
    </linearGradient>
    <linearGradient id="ix000-ct" x1="0" y1="0" x2="1" y2="1" spreadMethod="reflect" gradientUnits="objectBoundingBox">
      <stop offset="0" stop-color="#5a6d85"><animate attributeName="offset" values="0;.04;0" keyTimes="0;.5;1" calcMode="linear" dur="5.5s" begin="-1.82s" repeatCount="indefinite"/></stop>
      <stop offset=".18" stop-color="#eef2f7"/>
      <stop offset=".36" stop-color="#768eac"><animate attributeName="stop-color" values="#768eac;#8fa3bc;#667a94;#768eac" keyTimes="0;.33;.66;1" calcMode="linear" dur="5.5s" begin="-1.82s" repeatCount="indefinite"/></stop>
      <stop offset=".54" stop-color="#f4f7fc"/>
      <stop offset=".72" stop-color="#8fa3bc"/>
      <stop offset=".9" stop-color="#c8d6ea"><animate attributeName="stop-color" values="#c8d6ea;#f4f7fc;#a8bcd4;#c8d6ea" keyTimes="0;.33;.66;1" calcMode="linear" dur="11s" begin="-1.82s" repeatCount="indefinite"/></stop>
      <stop offset="1" stop-color="#667a94"/>
      <animateTransform attributeName="gradientTransform" type="translate" values="-1,-0.85;1,0.85;-1,-0.85" keyTimes="0;.5;1" calcMode="linear" dur="11s" begin="-1.82s" repeatCount="indefinite"/>
      <animateTransform attributeName="gradientTransform" type="rotate" values="0 0.5 0.5;360 0.5 0.5" calcMode="linear" dur="11s" begin="-1.82s" repeatCount="indefinite" additive="sum"/>
    </linearGradient>
    <linearGradient id="ix000-ct-rot" gradientUnits="objectBoundingBox" x1="0" y1="0" x2="1" y2="0" spreadMethod="reflect">
      <stop offset="0" stop-color="#4d6678"/>
      <stop offset=".2" stop-color="#768eac"/>
      <stop offset=".4" stop-color="#eef2f7"/>
      <stop offset=".6" stop-color="#a8bcd4"/>
      <stop offset=".8" stop-color="#f4f7fc"/>
      <stop offset="1" stop-color="#667a94"/>
      <animateTransform attributeName="gradientTransform" type="rotate" values="360 0.5 0.5;0 0.5 0.5;360 0.5 0.5" keyTimes="0;.5;1" calcMode="linear" dur="11s" begin="-1.82s" repeatCount="indefinite"/>
    </linearGradient>
    <linearGradient id="ix000-ct-mid" gradientUnits="objectBoundingBox" x1="0" y1="0" x2="1" y2="1" spreadMethod="reflect">
      <stop offset="0" stop-color="#667a94" stop-opacity=".92"/>
      <stop offset=".33" stop-color="#eef2f7" stop-opacity=".88"/>
      <stop offset=".66" stop-color="#768eac" stop-opacity=".9"/>
      <stop offset="1" stop-color="#8fa3bc" stop-opacity=".88"/>
      <animateTransform attributeName="gradientTransform" type="translate" values="-0.85,-0.65;0.85,0.65;-0.85,-0.65" keyTimes="0;.5;1" calcMode="linear" dur="11s" begin="-1.82s" repeatCount="indefinite"/>
      <animateTransform attributeName="gradientTransform" type="translate" values="0.45,0.35;-0.45,-0.35;0.45,0.35" keyTimes="0;.5;1" calcMode="linear" dur="11s" begin="-1.82s" repeatCount="indefinite" additive="sum"/>
    </linearGradient>
    <linearGradient id="ix000-ct-slow" gradientUnits="objectBoundingBox" x1="0" y1="0" x2="1" y2="1" spreadMethod="reflect">
      <stop offset="0" stop-color="#667a94" stop-opacity=".7"/>
      <stop offset=".5" stop-color="#eef2f7" stop-opacity=".55"/>
      <stop offset="1" stop-color="#768eac" stop-opacity=".65"/>
      <animateTransform attributeName="gradientTransform" type="translate" values="1,0.7;-1,-0.7;1,0.7" keyTimes="0;.5;1" calcMode="linear" dur="11s" begin="-2.75s" repeatCount="indefinite"/>
    </linearGradient>
    <linearGradient id="ix000-rose-metal" x1="0" y1="0" x2="1" y2="1">
      <stop offset="0" stop-color="#eef2f7"><animate attributeName="stop-color" values="#eef2f7;#ffffff;#c8d6ea;#eef2f7" dur="11s" repeatCount="indefinite"/></stop>
      <stop offset=".35" stop-color="#c8d6ea"><animate attributeName="stop-color" values="#c8d6ea;#eef2f7;#a8bcd4;#c8d6ea" dur="5.5s" begin="-2.75s" repeatCount="indefinite"/></stop>
      <stop offset=".65" stop-color="#768eac"/>
      <stop offset="1" stop-color="#5a6d85"><animate attributeName="stop-color" values="#5a6d85;#768eac;#667a94;#5a6d85" dur="11s" begin="-5.5s" repeatCount="indefinite"/></stop>
    </linearGradient>
    <radialGradient id="ix000-rose-glow" cx="50%" cy="50%" r="50%"><stop offset="0" stop-color="#eef2f7" stop-opacity=".45"/><stop offset=".7" stop-color="#bbcbe4" stop-opacity=".12"/><stop offset="1" stop-color="#889fba" stop-opacity="0"/></radialGradient>
    <style>
      .ix000ink-deep{stroke:url(#ix000-ct-rot)!important;stroke-width:3.2!important;fill:none!important;opacity:.5!important}
      .ix000ink{fill:url(#ix000-fill)!important;stroke:url(#ix000-ct)!important;stroke-width:1.6!important;filter:url(#ix000-diffuse)!important}
      .ix000ink-warp{fill:url(#ix000-fill)!important;stroke:url(#ix000-ct)!important;stroke-width:1.6!important;filter:url(#ix000-inkwarp)!important;opacity:.88!important}
      .ix000ink-mid{fill:none!important;stroke:url(#ix000-ct-mid)!important;stroke-width:2.4!important;opacity:.72!important}
      .ix000ink-shim{fill:url(#ix000-fill-shim)!important;stroke:#ffffff!important;stroke-width:2.5!important;filter:url(#ix000-shbright)!important;mix-blend-mode:screen!important}
      .ix000ink-shadow{fill:none!important;stroke:#3d4d5e!important;stroke-width:3.6!important;opacity:.32!important;transform:translate(.6px,1.1px)!important}
      .ix000ink-hi{fill:none!important;stroke:#ffffff!important;stroke-width:1.1!important;opacity:.38!important;transform:translate(-.4px,-.7px)!important;mix-blend-mode:screen!important}
      .ix000ink-rim{fill:none!important;stroke:url(#ix000-ct)!important;stroke-width:1.05!important;opacity:.55!important;transform:translate(-.25px,-.45px)!important}
      .ix000edge{stroke:url(#ix000-ct)!important;stroke-width:2.75!important;fill:none!important;filter:url(#ix000-edgespec)!important}
      .ix000edgehair{stroke:url(#ix000-ct-slow)!important;stroke-width:.85!important;fill:none!important;opacity:.68!important}
    </style>
    <g id="ix000-txt" transform="translate(15.13 72.54) scale(1.01 1)"><path d="M 5.6728516,11.092773 Q 5.8173828,10.478516 5.9980469,9.9003906 6.2148437,9.1054688 6.3232422,8.8525391 6.9375,7.5878906 6.9375,7.2988281 6.9375,7.0820312 6.5761719,6.5039062 6.9736328,5.5644531 7.2988281,2.9628906 7.3710937,2.5292969 7.7685547,1.8789062 7.8769531,1.6982422 7.8769531,1.5175781 q 0,-0.2167969 -0.4335937,-0.9394531 -0.072266,-0.14453125 -0.072266,-0.50585938 l 0.036133,-1.40917972 v -4.6611328 q 0.1445312,-0.9394531 0.180664,-1.1201172 0.072266,-0.2890625 0.578125,-0.5419921 v -1.3007813 q 0.7949219,-0.7226563 0.7949219,-1.4453125 0,-0.289063 -0.036133,-0.614258 l 0.1083984,-0.07226 q -0.3251953,-0.325196 -0.4335937,-1.047852 l -0.3613281,-1.517578 0.072266,-0.90332 -0.036133,-1.481446 q 0.3613281,-1.734375 0.3613281,-2.023437 0,-0.216797 -0.2529297,-1.698242 l 0.1083984,-2.059571 q 0,-0.03613 0,-0.180664 -0.036133,-0.361328 -0.036133,-0.614258 l 0.072266,-3.974609 q 0,-0.07227 0.1083984,-0.325195 0.036133,-0.180664 0.036133,-0.289063 0,-0.541992 -0.3251953,-1.698242 -0.072266,-0.25293 -0.072266,-0.433594 0,-0.325195 0.6142578,-0.65039 v -2.204102 q -0.7587891,-0.361328 -0.7587891,-0.758789 0,-0.831055 0.2529297,-3.251953 0.036133,-0.325195 0.036133,-0.541992 0,-0.108399 0,-0.325196 -0.3613281,-5.166992 -0.3613281,-5.419921 0,-2.095704 1.4453125,-3.288086 -0.1083984,-0.975586 -0.5419922,-1.517579 l -1.1201172,0.144532 q -0.1083984,-0.433594 -0.1083984,-0.758789 0,-0.07227 0.4335937,-2.529297 L 7.9492187,-50.875 q -0.2529296,-0.578125 -0.2529296,-2.999023 0,-0.361329 -0.1083985,-1.445313 l -0.9033203,-0.90332 H 6.0341797 l -0.072266,-0.397461 v -0.03613 q 0,-0.325195 0.180664,-0.505859 0.036133,-0.07227 0.975586,-0.614258 l 0.9755859,-0.722656 0.7226563,-0.25293 q 0.758789,-0.289063 1.6259767,-0.433594 l 0.361328,-0.975586 q 1.517578,-0.07227 2.384766,-0.614258 0.289062,0.867188 0.325195,1.336914 0,0.108399 -0.03613,0.650391 -0.03613,0.361328 -0.07227,0.975586 l -0.180664,5.817383 v 2.384765 q -0.433593,0.325196 -0.541992,0.50586 -0.07226,0.144531 -0.108398,0.686523 0,0.903321 -0.108399,1.698242 l 0.939453,0.180665 q -0.108398,0.831054 -0.108398,1.120117 -0.361328,3.179687 -0.831055,5.203125 l 0.578125,0.578125 q -0.03613,1.80664 -0.614257,4.155273 -0.03613,0.289063 -0.07227,1.734375 l 0.867187,0.216797 q -0.289062,2.420898 -0.361328,3.071289 v 0.03613 l 0.07227,2.420898 q 0,0.144532 -0.180664,0.722657 l -0.794922,0.758789 0.361328,1.842773 0.867188,0.108399 -0.180664,0.361328 v 6.070312 l 0.252929,1.373047 v 1.987305 l 0.03613,1.409179 q 0,0.578125 -1.445312,1.517578 0,0.939454 0.180664,1.083985 0,0.144531 0.686523,0.614258 0.108398,0.6142575 0.25293,0.8310544 0.289062,0.4697265 0.289062,0.6142578 0,0 -0.03613,0.1445312 -0.108398,0.3613282 -0.07226,1.4814454 l 0.144531,7.15429682 -0.722656,0.75878907 0.758789,0.46972651 v 6.9013672 0.5419922 q -0.50586,0.072266 -0.578125,0.1083985 l -1.300781,0.9394531 q -0.289063,0.1445312 -1.6982426,0.3974608 -0.6503906,0.397461 -1.3007813,0.758789 -0.7949219,0.469727 -1.5537109,0.469727 -0.4335938,0 -1.2285156,-0.325196 z"/><path d="m 32.069999,-18.12 q 0.6,-0.6 1.26,-1.08 0.72,-0.48 1.5,-0.9 l 0.42,0.06 q -0.06,1.38 -0.6,2.58 -0.54,1.2 -1.32,2.28 -0.78,1.08 -1.74,2.1 -0.9,1.02 -1.74,1.98 0.24,0.66 0.9,2.1 0.66,1.44 1.5,2.94 0.9,1.44 1.8,2.58 0.96,1.08 1.68,1.08 0.66,0 1.14,-0.24 0.54,-0.3 1.08,-0.6 0.06,0.36 -0.54,0.84 -0.54,0.42 -1.32,0.9 -0.78,0.48 -1.56,0.9 -0.72,0.42 -1.08,0.6 l -0.48,0.06 q -1.02,0 -1.92,-0.84 -0.9,-0.9 -1.68,-2.1 -0.78,-1.2 -1.38,-2.46 -0.6,-1.26 -1.08,-2.04 l -0.66,0.24 q -0.24,0.3 -0.84,1.32 -0.54,1.02 -1.2,2.1 -0.72,1.26 -1.62,2.76 -0.72,0.48 -1.38,1.08 -0.6,0.66 -1.32,1.14 0.24,-1.26 1.02,-2.64 0.72,-1.38 1.62,-2.7 0.96,-1.38 1.98,-2.58 1.08,-1.26 1.98,-2.16 -0.48,-0.72 -1.08,-1.92 -0.54,-1.26 -1.26,-2.46 -0.66,-1.26 -1.38,-2.28 -0.72,-1.02 -1.44,-1.38 -0.6,0.6 -1.32,0.6 l -0.3,-0.06 q 0.24,-0.3 0.84,-0.84 0.6,-0.54 1.32,-1.02 0.72,-0.54 1.38,-0.9 0.66,-0.42 1.02,-0.42 0.54,0 1.26,0.96 0.78,0.96 1.5,2.22 0.72,1.26 1.32,2.46 0.66,1.2 0.96,1.74 1.2,-1.2 1.92,-2.7 0.78,-1.56 0.84,-3.3 z"/><path d="m 44.70285,11.092773 q 0.144532,-0.614257 0.325196,-1.1923824 0.216797,-0.7949218 0.325195,-1.0478515 0.614258,-1.2646485 0.614258,-1.553711 0,-0.2167969 -0.361328,-0.7949219 0.397461,-0.9394531 0.722656,-3.5410156 0.07227,-0.4335937 0.469726,-1.0839844 0.108399,-0.180664 0.108399,-0.3613281 0,-0.2167969 -0.433594,-0.9394531 -0.07226,-0.14453125 -0.07226,-0.50585938 l 0.03613,-1.40917972 v -4.6611328 q 0.144532,-0.9394531 0.180664,-1.1201172 0.07227,-0.2890625 0.578125,-0.5419921 v -1.3007813 q 0.794922,-0.7226563 0.794922,-1.4453125 0,-0.289063 -0.03613,-0.614258 l 0.108399,-0.07226 q -0.325195,-0.325196 -0.433594,-1.047852 l -0.361328,-1.517578 0.07227,-0.90332 -0.03613,-1.481446 q 0.361328,-1.734375 0.361328,-2.023437 0,-0.216797 -0.25293,-1.698242 l 0.108399,-2.059571 q 0,-0.03613 0,-0.180664 -0.03613,-0.361328 -0.03613,-0.614258 l 0.07227,-3.974609 q 0,-0.07227 0.108398,-0.325195 0.03613,-0.180664 0.03613,-0.289063 0,-0.541992 -0.325196,-1.698242 -0.07227,-0.25293 -0.07227,-0.433594 0,-0.325195 0.614258,-0.65039 v -2.204102 q -0.758789,-0.361328 -0.758789,-0.758789 0,-0.831055 0.252929,-3.251953 0.03613,-0.325195 0.03613,-0.541992 0,-0.108399 0,-0.325196 -0.361328,-5.166992 -0.361328,-5.419921 0,-2.095704 1.445312,-3.288086 -0.108398,-0.975586 -0.541992,-1.517579 l -1.120117,0.144532 q -0.108398,-0.433594 -0.108398,-0.758789 0,-0.07227 0.433593,-2.529297 L 46.979218,-50.875 q -0.25293,-0.578125 -0.25293,-2.999023 0,-0.361329 -0.108399,-1.445313 l -0.90332,-0.90332 h -0.650391 l -0.07227,-0.397461 v -0.03613 q 0,-0.325195 0.180664,-0.505859 0.03613,-0.07227 0.975586,-0.614258 l 0.975586,-0.722656 0.722656,-0.25293 q 0.758789,-0.289063 1.625977,-0.433594 l 0.361328,-0.975586 q 1.517578,-0.07227 2.384765,-0.614258 0.289063,0.867188 0.325196,1.336914 0,0.108399 -0.03613,0.650391 -0.03613,0.361328 -0.07227,0.975586 l -0.180664,5.817383 v 2.384765 q -0.433594,0.325196 -0.541992,0.50586 -0.07227,0.144531 -0.108398,0.686523 0,0.903321 -0.108399,1.698242 l 0.939453,0.180665 q -0.108398,0.831054 -0.108398,1.120117 -0.361328,3.179687 -0.831055,5.203125 l 0.578125,0.578125 q -0.03613,1.80664 -0.614258,4.155273 -0.03613,0.289063 -0.07226,1.734375 l 0.867187,0.216797 q -0.289062,2.420898 -0.361328,3.071289 v 0.03613 l 0.07227,2.420898 q 0,0.144532 -0.180664,0.722657 l -0.794922,0.758789 0.361328,1.842773 0.867187,0.108399 -0.180664,0.361328 v 6.070312 l 0.25293,1.373047 v 1.987305 l 0.03613,1.409179 q 0,0.578125 -1.445313,1.517578 0,0.939454 0.180664,1.083985 0,0.144531 0.686524,0.614258 0.108398,0.6142575 0.252929,0.8310544 0.289063,0.4697265 0.289063,0.6142578 0,0 -0.03613,0.1445312 -0.108398,0.3613282 -0.07226,1.4814454 l 0.144531,7.15429682 -0.722656,0.75878907 0.758789,0.46972651 v 6.9013672 0.5419922 q -0.50586,0.072266 -0.578125,0.1083985 L 50.4841,9.7919922 q -0.289062,0.1445312 -1.698242,0.3974608 -0.65039,0.397461 -1.300781,0.758789 -0.794922,0.469727 -1.553711,0.469727 -0.433594,0 -1.228516,-0.325196 z"/><path d="m 76.749998,-16.02 q -2.46,-0.18 -4.86,-0.36 -2.34,-0.24 -4.74,-0.24 -1.32,0 -2.04,0.12 -0.66,0.06 -1.14,0.3 -0.48,0.24 -1.02,0.72 -0.48,0.42 -1.44,1.14 -0.24,0.48 -0.48,0.9 -0.18,0.42 -0.48,0.84 l -0.6,-0.48 q 0.3,-0.72 1.08,-1.62 0.84,-0.96 1.8,-1.86 1.02,-0.9 1.98,-1.56 1.02,-0.72 1.74,-0.96 0.84,-0.3 1.8,-0.36 1.02,-0.06 1.92,-0.06 2.28,0 4.5,0.3 2.22,0.24 4.5,0.54 z"/><path d="m 111.51,-45.214 q 1.554,0 2.96,0.666 1.48,0.666 2.96,1.48 1.48,0.814 3.034,1.48 1.628,0.666 3.478,0.666 1.11,0 1.924,-0.296 0.814,-0.296 1.85,-0.666 -0.37,0.592 -1.406,1.258 -1.036,0.666 -2.294,1.258 -1.184,0.592 -2.368,0.962 -1.184,0.37 -1.85,0.37 -1.702,0 -3.256,-0.666 -1.554,-0.666 -3.034,-1.48 -1.406,-0.888 -2.812,-1.554 -1.406,-0.666 -2.812,-0.666 -0.814,0 -1.554,0.37 -0.74,0.296 -1.332,0.888 -0.296,0.666 -0.296,1.702 0,1.48 0.74,2.96 0.814,1.48 1.702,2.96 0.962,1.48 1.702,3.034 0.814,1.48 0.814,2.96 0,0.74 -0.222,1.48 -0.222,0.666 -0.296,1.406 2.368,-1.258 4.884,-2.368 2.59,-1.184 5.402,-1.184 0.814,0 1.036,0.37 0.222,0.37 0.222,1.11 0,0.148 -0.222,0.74 -0.222,0.592 -0.518,1.332 -0.296,0.666 -0.592,1.332 -0.296,0.666 -0.37,0.962 -0.37,-0.814 -0.962,-1.776 -0.592,-1.036 -1.628,-1.036 -1.702,0 -3.478,0.444 -1.702,0.444 -3.256,1.258 -1.554,0.814 -2.812,2.072 -1.258,1.184 -1.998,2.738 -0.666,0.37 -1.332,0.74 -0.666,0.296 -1.406,0.296 -0.37,0 -0.814,-0.148 l -0.074,-0.518 q 0,-0.37 0.296,-0.518 0.296,-0.222 0.666,-0.296 0.444,-0.148 0.888,-0.148 0.444,-0.074 0.666,-0.074 1.11,-0.74 1.702,-1.924 0.666,-1.258 0.666,-2.516 0,-1.258 -0.592,-2.59 -0.518,-1.406 -1.332,-2.738 -0.74,-1.406 -1.554,-2.738 -0.814,-1.332 -1.332,-2.442 -0.444,-1.036 -0.444,-2.146 0.074,-1.11 0.074,-2.22 -1.331999,1.332 -2.367999,3.034 -0.962,1.628 -1.628,3.552 -0.592,1.85 -0.962,3.774 -0.296,1.924 -0.296,3.774 0,1.702 0.222,3.7 0.296,1.924 0.74,3.848 0.518,1.85 1.332,3.626 0.814,1.776 1.924,3.108 1.405999,1.702 3.033999,3.33 1.628,1.554 3.478,2.812 1.85,1.184 3.922,1.924 2.072,0.666 4.44,0.666 3.034,0 4.736,-0.814 1.776,-0.888 2.96,-1.998 1.184,-1.184 2.22,-2.368 1.036,-1.258 2.664,-2.072 -0.814,1.776 -2.664,3.552 -1.85,1.776 -4.144,3.182 -2.22,1.332 -4.662,2.22 -2.368,0.888 -4.292,0.888 -1.184,0 -2.442,-0.074 -1.258,-0.074 -2.442,-0.222 -1.48,-0.888 -2.96,-1.406 -1.48,-0.518 -2.886,-1.702 -2.441999,-1.998 -4.143999,-3.996 -1.628,-2.072 -2.664,-4.292 -1.036,-2.294 -1.48,-4.884 -0.444,-2.59 -0.444,-5.772 0,-6.068 2.442,-11.248 2.516,-5.18 8.065999,-8.288 0.888,-0.444 1.998,-1.184 1.11,-0.814 2.294,-1.48 1.258,-0.74 2.442,-1.258 1.184,-0.518 2.146,-0.518 z m 37.37,21.016 q 0.814,0 1.332,1.184 0.592,1.11 0.962,2.886 0.444,1.776 0.74,3.996 0.296,2.146 0.518,4.218 0.296,2.072 0.444,3.848 0.222,1.702 0.518,2.59 0.222,0.814 0.592,1.406 0.444,0.518 1.036,1.184 0.814,-0.296 1.48,-0.666 0.666,-0.444 1.332,-0.888 0.074,0.148 0.148,0.222 0.074,0.074 0.074,0.222 0,0.37 -0.518,0.74 -0.444,0.296 -0.666,0.592 -1.406,0.814 -2.664,1.702 -1.258,0.888 -2.738,1.554 -1.036,-0.444 -1.628,-1.776 -0.592,-1.332 -0.962,-3.182 -0.37,-1.85 -0.592,-3.996 -0.148,-2.22 -0.296,-4.292 -0.148,-2.072 -0.37,-3.774 -0.222,-1.776 -0.666,-2.812 -0.222,-0.74 -0.962,-0.74 -0.666,0 -1.776,1.036 -1.11,1.036 -2.22,2.442 -1.11,1.332 -1.998,2.664 -0.888,1.332 -1.184,1.924 -0.814,1.554 -0.888,3.034 0,1.48 -0.222,2.96 -0.148,1.48 -0.962,2.96 -0.814,1.48 -3.256,3.108 0.37,-1.924 0.74,-3.552 0.444,-1.628 0.444,-3.7 0,-1.628 -0.148,-3.404 -0.148,-1.776 -0.518,-3.478 -0.296,-1.776 -0.962,-3.404 -0.666,-1.628 -1.628,-2.96 -0.666,0.444 -1.332,0.962 -0.666,0.444 -1.406,0.814 0.074,-0.518 0.814,-1.406 0.814,-0.888 1.85,-1.702 1.036,-0.814 2.072,-1.406 1.036,-0.666 1.554,-0.666 0.296,0 0.74,0.148 1.11,2.294 1.702,4.736 0.666,2.442 0.814,4.958 0.666,-0.888 1.998,-2.59 1.332,-1.702 2.886,-3.404 1.554,-1.702 3.108,-2.96 1.554,-1.332 2.664,-1.332 z m 29.674,-26.64 q 0.666,0 1.554,0.074 0.962,0 1.85,0.148 0.888,0.148 1.628,0.592 0.74,0.37 0.962,1.11 -0.888,0.814 -1.776,1.554 -0.888,0.74 -1.85,1.48 -0.296,-0.814 -1.036,-1.184 -0.74,-0.37 -1.702,-0.518 -0.888,-0.148 -1.85,-0.148 -0.962,0 -1.628,0 -0.962,0 -2.664,0.222 -1.628,0.222 -3.33,0.74 -1.628,0.444 -3.108,1.11 -1.406,0.666 -1.924,1.554 -0.592,1.036 -0.962,3.108 -0.37,2.072 -0.592,4.366 -0.222,2.294 -0.296,4.514 -0.074,2.146 -0.074,3.404 0,0.962 0,2.22 0,1.258 0,2.59 0.074,1.332 0.222,2.516 0.148,1.184 0.518,2.072 0.592,-0.666 1.776,-1.85 1.184,-1.184 2.516,-2.368 1.406,-1.184 2.738,-1.998 1.332,-0.888 2.22,-0.888 0.592,0 0.962,0.37 0.444,0.37 0.74,0.888 0.296,0.518 0.37,1.184 0.148,0.592 0.148,1.036 0,1.332 -0.518,2.59 -0.518,1.184 -1.332,2.22 -0.74,1.036 -1.702,2.072 -0.888,0.962 -1.776,1.85 0.74,1.184 1.998,3.034 1.332,1.85 2.886,3.626 1.554,1.776 3.182,3.034 1.702,1.258 3.256,1.258 0.518,0 1.036,-0.296 0.518,-0.296 1.036,-0.74 0.518,-0.444 0.962,-0.888 0.444,-0.444 0.814,-0.74 0.148,0.296 0.148,0.518 0,0.666 -0.962,1.628 -0.962,0.888 -2.294,1.702 -1.258,0.814 -2.516,1.406 -1.258,0.592 -1.924,0.592 -1.702,0 -3.478,-1.258 -1.702,-1.332 -3.256,-3.182 -1.554,-1.85 -2.886,-3.774 -1.258,-1.998 -2.072,-3.33 0.222,-0.518 1.11,-1.184 0.888,-0.74 1.85,-1.702 1.036,-1.036 1.776,-2.294 0.814,-1.258 0.814,-2.812 0,-0.888 -0.444,-2.072 -0.37,-1.258 -1.554,-1.258 -0.444,0 -1.036,0.37 -0.518,0.37 -1.036,0.888 -0.518,0.444 -0.962,1.036 -0.444,0.518 -0.666,0.814 -1.036,1.406 -1.48,3.552 -0.444,2.146 -0.592,4.514 -0.148,2.368 -0.074,4.662 0.148,2.294 0.296,3.922 -0.814,1.036 -1.776,1.85 -0.888,0.814 -1.85,1.628 -0.592,-6.956 -0.592,-13.986 0,-7.03 0,-13.986 0,-1.628 0,-3.626 0.074,-2.072 0.296,-4.144 0.296,-2.072 0.814,-3.922 0.518,-1.924 1.554,-3.33 2.96,-4.144 7.77,-6.142 4.81,-1.998 9.768,-1.998 z m 14.13403,16.946 q 0.37,0 0.592,0.148 0.296,0.074 0.592,0.222 0.074,0.592 0.37,1.406 -0.814,1.702 -2.072,3.108 -1.258,1.406 -2.812,2.442 0.148,-0.814 0.518,-1.48 0.444,-0.666 0.814,-1.406 -0.518,-0.37 -1.036,-0.74 -0.444,-0.444 -0.814,-0.962 0.222,-0.222 0.74,-0.666 0.518,-0.518 1.036,-0.962 0.592,-0.444 1.11,-0.74 0.592,-0.37 0.962,-0.37 z m -1.48,10.212 h 0.296 q 0.74,0.814 1.036,2.146 0.37,1.258 0.37,2.738 0.074,1.406 0,2.886 -0.074,1.406 -0.074,2.442 0,1.332 0,2.812 0.074,1.406 0.296,2.886 0.222,1.406 0.592,2.738 0.444,1.332 1.258,2.442 0.666,-0.37 1.258,-0.666 0.666,-0.296 1.332,-0.592 0,0.444 -0.814,1.184 -0.814,0.666 -1.85,1.258 -0.962,0.592 -1.998,1.036 -1.036,0.444 -1.48,0.444 -1.036,0 -1.554,-1.628 -0.444,-1.702 -0.592,-3.848 -0.148,-2.22 -0.148,-4.218 0.074,-1.998 0.074,-2.664 0,-2.072 -0.222,-4.218 -0.148,-2.146 -0.962,-4.07 -0.37,0.222 -0.814,0.444 -0.444,0.148 -0.814,0.37 l -0.148,-0.888 q 0.222,-0.222 0.962,-0.74 0.74,-0.518 1.48,-0.962 0.814,-0.518 1.554,-0.888 0.74,-0.444 0.962,-0.444 z"/></g>
    <g id="ix000-rose" filter="url(#ix000-rosespec)">
      <circle r="11" fill="url(#ix000-rose-glow)" opacity=".55"/>
      <circle r="9.2" fill="none" stroke="url(#ix000-rose-metal)" stroke-width=".6" opacity=".85"/>
      <g class="ix000rosepulse"><circle r="8.5" fill="url(#ix000-rose-metal)" stroke="#475567" stroke-width=".8"/><circle r="3.2" fill="#3b4756" stroke="none"/><path d="M0 -13 L2.3 -8 L-2.3 -8 Z M0 13 L2.3 8 L-2.3 8 Z M-13 0 L-8 2.3 L-8 -2.3 Z M13 0 L8 2.3 L8 -2.3 Z" fill="url(#ix000-rose-metal)" stroke="none"/></g>
      <circle r="8.5" fill="none" stroke="#ffffff" stroke-width=".35" opacity=".28"/>
    </g>
    <g id="ix000-rose-shadow" opacity=".35" transform="translate(.8 1.2)"><use href="#ix000-rose"/></g>
  </defs>

  <rect x="220" y="356" width="560" height="165" fill="transparent"/>
  <rect x="220" y="356" width="560" height="165" fill="url(#ix000-glow)"/>

  <rect x="280" y="366" width="440" height="142" rx="16" fill="url(#ix000-cdk)"/>
  <rect x="282" y="368" width="436" height="60" rx="14" fill="url(#ix000-cardsheen)" opacity=".22"/>

  <g clip-path="url(#ix000-cclip)">
    <!-- L1 BlurredGradient -->
    <g filter="url(#ix000-blur)" opacity=".22">
      <ellipse cx="380" cy="430" rx="120" ry="72" fill="url(#ix000-bloba)"/>
      <ellipse cx="580" cy="450" rx="110" ry="68" fill="url(#ix000-blobb)"/>
    </g>
    <!-- L2 InfiniteGrid -->
    <g class="ix000scroll"><rect x="172" y="316" width="700" height="270" fill="url(#ix000-grid)"/></g>
    <!-- L3 NebulaFlux -->
    <g filter="url(#ix000-blur)" opacity=".96">
      <ellipse cx="380" cy="437" rx="148" ry="88" fill="url(#ix000-neb)"><animate attributeName="cx" values="360;560;360" dur="11s" repeatCount="indefinite"/><animate attributeName="cy" values="412;460;412" dur="5.5s" begin="-1.82s" repeatCount="indefinite"/></ellipse>
      <ellipse cx="620" cy="437" rx="148" ry="88" fill="url(#ix000-nebb)"><animate attributeName="cx" values="640;440;640" dur="11s" begin="-5.5s" repeatCount="indefinite"/><animate attributeName="cy" values="460;412;460" dur="11s" begin="-2.75s" repeatCount="indefinite"/></ellipse>
      <ellipse cx="500" cy="430" rx="128" ry="78" fill="url(#ix000-nebc)"><animate attributeName="cy" values="420;452;420" dur="11s" begin="-1.82s" repeatCount="indefinite"/></ellipse>
      <ellipse cx="450" cy="448" rx="92" ry="56" fill="url(#ix000-nebd)"><animate attributeName="cx" values="430;520;430" dur="11s" begin="-3.67s" repeatCount="indefinite"/><animate attributeName="cy" values="458;432;458" dur="11s" begin="-1.82s" repeatCount="indefinite"/></ellipse>
    </g>
    <!-- L4 ShootingStars -->
    <g class="ix000sh1"><line x1="320" y1="386" x2="356" y2="402" stroke="url(#ix000-shoot)" stroke-width="2.2" stroke-linecap="round"/></g>
    <g class="ix000sh2"><line x1="470" y1="392" x2="506" y2="408" stroke="url(#ix000-shoot)" stroke-width="1.8" stroke-linecap="round"/></g>
    <g class="ix000sh3"><line x1="590" y1="388" x2="626" y2="404" stroke="url(#ix000-shoot)" stroke-width="1.5" stroke-linecap="round"/></g>
    <!-- L5 Polish: 6 rising particles -->
    <g>
      <circle cx="394.0" cy="487.9" r="1.1" fill="#ffffff" opacity="0"><animate attributeName="cy" values="487.9;461.5" dur="5.5s" begin="-2.75s" repeatCount="indefinite"/><animate attributeName="opacity" values="0;.74;0" dur="5.5s" begin="-2.75s" repeatCount="indefinite"/></circle>
      <circle cx="464.2" cy="481.4" r="1.3" fill="#bbcbe4" opacity="0"><animate attributeName="cy" values="481.4;435.6" dur="5.5s" begin="-0.92s" repeatCount="indefinite"/><animate attributeName="opacity" values="0;.74;0" dur="5.5s" begin="-0.92s" repeatCount="indefinite"/></circle>
      <circle cx="330.5" cy="451.0" r="1.4" fill="#ccd9ef" opacity="0"><animate attributeName="cy" values="451.0;413.0" dur="5.5s" begin="-3.67s" repeatCount="indefinite"/><animate attributeName="opacity" values="0;.74;0" dur="5.5s" begin="-3.67s" repeatCount="indefinite"/></circle>
      <circle cx="499.1" cy="454.2" r="1.2" fill="#ffffff" opacity="0"><animate attributeName="cy" values="454.2;432.5" dur="11s" begin="-4.58s" repeatCount="indefinite"/><animate attributeName="opacity" values="0;.74;0" dur="11s" begin="-4.58s" repeatCount="indefinite"/></circle>
      <circle cx="673.1" cy="436.8" r="1.8" fill="#889fba" opacity="0"><animate attributeName="cy" values="436.8;397.8" dur="5.5s" begin="-4.12s" repeatCount="indefinite"/><animate attributeName="opacity" values="0;.74;0" dur="5.5s" begin="-4.12s" repeatCount="indefinite"/></circle>
      <circle cx="382.7" cy="400.2" r="1.1" fill="#ffffff" opacity="0"><animate attributeName="cy" values="400.2;356.7" dur="11s" begin="-3.19s" repeatCount="indefinite"/><animate attributeName="opacity" values="0;.74;0" dur="11s" begin="-3.19s" repeatCount="indefinite"/></circle>
    </g>
    <!-- wash / shimmer / sheen -->
    <rect class="ix000wash" x="286" y="372" width="428" height="130" fill="url(#ix000-wash)"/>
    <g class="ix000shim">
      <rect x="232" y="364" width="112" height="150" fill="url(#ix000-shimg)" filter="url(#ix000-shblur)" transform="skewX(-16)"/>
      <rect x="258" y="366" width="46" height="146" fill="url(#ix000-shimg2)" transform="skewX(-16)" opacity=".9"/>
    </g>
    <rect x="286" y="372" width="428" height="38" fill="url(#ix000-sheen)"/>
  </g>

  <rect class="ix000edgeglow" x="276" y="362" width="448" height="150" rx="18" fill="none" stroke="#889fba" stroke-width="4" opacity=".12" filter="url(#ix000-edgeshadow)"/>
  <rect class="ix000edge" x="280" y="366" width="440" height="142" rx="16"/>
  <rect class="ix000edgehair" x="288" y="374" width="424" height="126" rx="11"/>
  <rect x="288" y="374" width="424" height="126" rx="11" fill="none" stroke="#889fba" stroke-width="1" opacity=".62"/>

  <g transform="translate(280.02,351) scale(1.8)" filter="url(#ix000-emboss)">
    <use href="#ix000-txt" class="ix000ink-shadow"/>
    <use href="#ix000-txt" class="ix000ink-deep"/>
    <use href="#ix000-txt" class="ix000ink-mid"/>
    <use href="#ix000-txt" class="ix000ink-warp"/>
    <use href="#ix000-txt" class="ix000ink"/>
    <use href="#ix000-txt" class="ix000ink-rim"/>
    <g clip-path="url(#ix000-shclip)"><use href="#ix000-txt" class="ix000ink-shim"/></g>
    <use href="#ix000-txt" class="ix000ink-hi"/>
  </g>

  <use href="#ix000-rose-shadow" x="280" y="437"/>
  <use href="#ix000-rose" x="280" y="437"/>
  <use href="#ix000-rose-shadow" x="720" y="437"/>
  <use href="#ix000-rose" x="720" y="437"/>
</svg>
